<svg width="27" height="27" viewBox="0 0 27 27" fill="none" xmlns="http://www.w3.org/2000/svg">
<path d="M8.85417 23.1572C9.0976 23.1572 9.29924 23.0773 9.45908 22.9174C9.61893 22.7576 9.69885 22.5559 9.69885 22.3125V13.7852C10.3399 13.6235 10.8724 13.3006 11.2965 12.8166C11.7206 12.3326 11.9326 11.7437 11.9326 11.05V5.80302C11.9326 5.63231 11.8708 5.48522 11.7474 5.36173C11.6239 5.23801 11.4768 5.17615 11.3061 5.17615C11.1354 5.17615 10.9883 5.23801 10.8648 5.36173C10.7413 5.48522 10.6795 5.63231 10.6795 5.80302V9.83485H9.48069V5.80302C9.48069 5.63231 9.41894 5.48522 9.29546 5.36173C9.17197 5.23801 9.02487 5.17615 8.85417 5.17615C8.68346 5.17615 8.53636 5.23801 8.41288 5.36173C8.28939 5.48522 8.22765 5.63231 8.22765 5.80302V9.83485H7.02879V5.80302C7.02879 5.63231 6.96705 5.48522 6.84356 5.36173C6.72008 5.23801 6.57298 5.17615 6.40227 5.17615C6.23156 5.17615 6.08446 5.23801 5.96098 5.36173C5.83749 5.48522 5.77575 5.63231 5.77575 5.80302V11.05C5.77575 11.7437 5.98778 12.3326 6.41183 12.8166C6.83589 13.3006 7.36844 13.6235 8.00948 13.7852V22.3125C8.00948 22.5559 8.0894 22.7576 8.24925 22.9174C8.4091 23.0773 8.61074 23.1572 8.85417 23.1572ZM17.3542 23.1572C17.5976 23.1572 17.7992 23.0773 17.9591 22.9174C18.1189 22.7576 18.1989 22.5559 18.1989 22.3125V14.2428C18.9688 13.9106 19.5744 13.3449 20.0157 12.5456C20.4573 11.7464 20.678 10.801 20.678 9.70948C20.678 8.40922 20.362 7.32865 19.7299 6.46779C19.0978 5.60669 18.3059 5.17615 17.3542 5.17615C16.4024 5.17615 15.6105 5.60669 14.9784 6.46779C14.3463 7.32865 14.0303 8.40922 14.0303 9.70948C14.0303 10.801 14.2511 11.7464 14.6926 12.5456C15.1339 13.3449 15.7395 13.9106 16.5095 14.2428V22.3125C16.5095 22.5559 16.5894 22.7576 16.7492 22.9174C16.9091 23.0773 17.1107 23.1572 17.3542 23.1572ZM2.56098 26.9167C1.84533 26.9167 1.23958 26.6687 0.74375 26.1729C0.247917 25.6771 0 25.0713 0 24.3557V2.56098C0 1.84533 0.247917 1.23958 0.74375 0.74375C1.23958 0.247917 1.84533 0 2.56098 0H24.3557C25.0713 0 25.6771 0.247917 26.1729 0.74375C26.6687 1.23958 26.9167 1.84533 26.9167 2.56098V24.3557C26.9167 25.0713 26.6687 25.6771 26.1729 26.1729C25.6771 26.6687 25.0713 26.9167 24.3557 26.9167H2.56098ZM2.56098 24.7917H24.3557C24.4648 24.7917 24.5646 24.7462 24.6553 24.6553C24.7462 24.5646 24.7917 24.4648 24.7917 24.3557V2.56098C24.7917 2.4519 24.7462 2.35202 24.6553 2.26135C24.5646 2.17045 24.4648 2.125 24.3557 2.125H2.56098C2.4519 2.125 2.35202 2.17045 2.26135 2.26135C2.17045 2.35202 2.125 2.4519 2.125 2.56098V24.3557C2.125 24.4648 2.17045 24.5646 2.26135 24.6553C2.35202 24.7462 2.4519 24.7917 2.56098 24.7917Z" fill="white" fill-opacity="0.8"/>
</svg>
