<svg width="27" height="18" viewBox="0 0 27 18" fill="none" xmlns="http://www.w3.org/2000/svg">
<path d="M0 16.6458V9.91667C0 9.38825 0.125375 8.87565 0.376125 8.37888C0.626639 7.8821 0.973486 7.47386 1.41667 7.15417V3.54167C1.41667 2.55189 1.7595 1.71417 2.44517 1.0285C3.13083 0.342833 3.96856 0 4.95833 0H10.9792C11.4951 0 11.9573 0.100347 12.3657 0.301042C12.7744 0.501736 13.1386 0.779167 13.4583 1.13333C13.778 0.779167 14.1422 0.501736 14.5509 0.301042C14.9594 0.100347 15.4216 0 15.9375 0H21.9583C22.9481 0 23.7858 0.342833 24.4715 1.0285C25.1572 1.71417 25.5 2.55189 25.5 3.54167V7.15417C25.9432 7.47386 26.29 7.8821 26.5405 8.37888C26.7913 8.87565 26.9167 9.38825 26.9167 9.91667V16.6458C26.9167 16.9469 26.8148 17.1992 26.611 17.4027C26.4073 17.6065 26.1549 17.7083 25.8538 17.7083C25.5525 17.7083 25.3002 17.6065 25.097 17.4027C24.8934 17.1992 24.7917 16.9469 24.7917 16.6458V14.875H2.125V16.6458C2.125 16.9469 2.02312 17.1992 1.81935 17.4027C1.61559 17.6065 1.36319 17.7083 1.06215 17.7083C0.760868 17.7083 0.508583 17.6065 0.305292 17.4027C0.101764 17.1992 0 16.9469 0 16.6458ZM14.5208 6.375H23.375V3.54167C23.375 3.14028 23.2392 2.80382 22.9677 2.53229C22.6962 2.26076 22.3597 2.125 21.9583 2.125H15.9375C15.5361 2.125 15.1997 2.26076 14.9281 2.53229C14.6566 2.80382 14.5208 3.14028 14.5208 3.54167V6.375ZM3.54167 6.375H12.3958V3.54167C12.3958 3.14028 12.2601 2.80382 11.9885 2.53229C11.717 2.26076 11.3806 2.125 10.9792 2.125H4.95833C4.55694 2.125 4.22049 2.26076 3.94896 2.53229C3.67743 2.80382 3.54167 3.14028 3.54167 3.54167V6.375ZM2.125 12.75H24.7917V9.91667C24.7917 9.51528 24.6559 9.17882 24.3844 8.90729C24.1128 8.63576 23.7764 8.5 23.375 8.5H3.54167C3.14028 8.5 2.80382 8.63576 2.53229 8.90729C2.26076 9.17882 2.125 9.51528 2.125 9.91667V12.75Z" fill="white" fill-opacity="0.8"/>
</svg>
