<svg width="31" height="27" viewBox="0 0 31 27" fill="none" xmlns="http://www.w3.org/2000/svg">
<path d="M4.41327 26.7966C3.71415 26.7966 3.15385 26.515 2.7324 25.9519C2.31117 25.389 2.17683 24.7507 2.32935 24.0369C2.64362 22.6965 2.85706 21.3515 2.96969 20.0019C3.08231 18.6525 3.15492 17.2941 3.1875 15.9265C2.19229 15.5849 1.41218 14.9804 0.847167 14.1132C0.282389 13.246 0 12.2793 0 11.2133V10.5212C0 10.0599 0.132104 9.64349 0.396312 9.27208C0.660757 8.90068 1.01174 8.62691 1.44925 8.45077C3.78321 7.54458 5.97585 6.40534 8.02719 5.03306C10.0788 3.66102 12.039 2.14578 13.9078 0.487334C14.104 0.320403 14.3111 0.197388 14.529 0.11829C14.7469 0.0394294 14.9803 0 15.2292 0C15.478 0 15.7114 0.0394294 15.9294 0.11829C16.1473 0.197388 16.3544 0.320403 16.5506 0.487334C18.4194 2.14578 20.3796 3.66102 22.4311 5.03306C24.4825 6.40534 26.6751 7.54458 29.0091 8.45077C29.4466 8.62691 29.7976 8.90068 30.062 9.27208C30.3262 9.64349 30.4583 10.0599 30.4583 10.5212V11.2133C30.4583 12.2793 30.1759 13.246 29.6112 14.1132C29.0462 14.9804 28.266 15.5849 27.2708 15.9265C27.3034 17.2941 27.376 18.6525 27.4886 20.0019C27.6013 21.3515 27.8147 22.6965 28.129 24.0369C28.2815 24.7507 28.1472 25.389 27.7259 25.9519C27.3045 26.515 26.7442 26.7966 26.0451 26.7966H4.41327ZM5.06175 9.08827H25.3966C23.5294 8.1783 21.7545 7.14083 20.0717 5.97585C18.3889 4.81065 16.7748 3.536 15.2292 2.15192C13.6836 3.536 12.0694 4.81065 10.3866 5.97585C8.70388 7.14083 6.92892 8.1783 5.06175 9.08827ZM18.7708 14.0466C19.4973 14.0466 20.0922 13.765 20.5555 13.2019C21.0185 12.639 21.25 11.9761 21.25 11.2133H16.2917C16.2917 11.9761 16.5232 12.639 16.9862 13.2019C17.4494 13.765 18.0443 14.0466 18.7708 14.0466ZM11.6875 14.0466C12.414 14.0466 13.0089 13.765 13.4721 13.2019C13.9352 12.639 14.1667 11.9761 14.1667 11.2133H9.20833C9.20833 11.9761 9.43984 12.639 9.90285 13.2019C10.3661 13.765 10.961 14.0466 11.6875 14.0466ZM4.60417 14.0466C5.33068 14.0466 5.92556 13.765 6.38881 13.2019C6.85183 12.639 7.08333 11.9761 7.08333 11.2133H2.125C2.125 11.9761 2.35651 12.639 2.81952 13.2019C3.28277 13.765 3.87765 14.0466 4.60417 14.0466ZM4.35342 24.6716H8.91969C9.15037 23.164 9.32698 21.6661 9.44952 20.1779C9.57206 18.6895 9.66426 17.187 9.72613 15.6705C9.39911 15.525 9.1035 15.3397 8.83929 15.1144C8.57485 14.8892 8.34369 14.6277 8.14583 14.3299C7.82425 14.7967 7.41696 15.1868 6.92396 15.5001C6.43072 15.8134 5.89357 16.0154 5.3125 16.1061C5.26528 17.561 5.17804 19.0005 5.05077 20.4244C4.92374 21.8484 4.69129 23.2641 4.35342 24.6716ZM11.0663 24.6716H19.392C19.176 23.2549 19.0103 21.8405 18.8948 20.4283C18.7796 19.0162 18.691 17.5899 18.6292 16.1496C17.93 16.148 17.2798 15.98 16.6784 15.6457C16.0773 15.3116 15.5942 14.8621 15.2292 14.2974C14.8641 14.8621 14.3811 15.3116 13.7799 15.6457C13.1785 15.98 12.5283 16.148 11.8292 16.1496C11.7673 17.5899 11.6788 19.0162 11.5635 20.4283C11.4481 21.8405 11.2823 23.2549 11.0663 24.6716ZM21.5386 24.6716H26.1049C25.767 23.2641 25.5346 21.8484 25.4076 20.4244C25.2803 19.0005 25.1931 17.561 25.1458 16.1061C24.5648 16.0154 24.0231 15.8147 23.5209 15.504C23.0187 15.1935 22.6159 14.7931 22.3125 14.3027C22.1236 14.6096 21.8971 14.8757 21.6329 15.101C21.3684 15.3262 21.0682 15.516 20.7322 15.6705C20.7941 17.187 20.8899 18.6895 21.0198 20.1779C21.1497 21.6661 21.3226 23.164 21.5386 24.6716ZM25.8542 14.0466C26.5807 14.0466 27.1756 13.765 27.6388 13.2019C28.1018 12.639 28.3333 11.9761 28.3333 11.2133H23.375C23.375 11.9761 23.6065 12.639 24.0695 13.2019C24.5328 13.765 25.1277 14.0466 25.8542 14.0466Z" fill="white" fill-opacity="0.8"/>
</svg>
