<svg width="40" height="36" viewBox="0 0 40 36" fill="none" xmlns="http://www.w3.org/2000/svg">
<path d="M3.38953 35.625C2.44234 35.625 1.64063 35.2969 0.984375 34.6406C0.328125 33.9844 0 33.1827 0 32.2355V10.8895C0 9.94234 0.328125 9.14063 0.984375 8.48438C1.64063 7.82813 2.44234 7.5 3.38953 7.5H9.11531L11.5673 4.84266C11.8773 4.50641 12.2509 4.24031 12.6881 4.04438C13.125 3.84813 13.5831 3.75 14.0625 3.75H21.6708C22.0692 3.75 22.4031 3.88484 22.6725 4.15453C22.9422 4.42422 23.077 4.75828 23.077 5.15672C23.077 5.55547 22.9422 5.88938 22.6725 6.15844C22.4031 6.42781 22.0692 6.5625 21.6708 6.5625H13.8103L10.3702 10.3125H3.38953C3.22109 10.3125 3.08281 10.3666 2.97469 10.4747C2.86656 10.5828 2.8125 10.7211 2.8125 10.8895V32.2355C2.8125 32.4039 2.86656 32.5422 2.97469 32.6503C3.08281 32.7584 3.22109 32.8125 3.38953 32.8125H32.2355C32.4039 32.8125 32.5422 32.7584 32.6503 32.6503C32.7584 32.5422 32.8125 32.4039 32.8125 32.2355V17.7042C32.8125 17.3058 32.9473 16.9719 33.217 16.7025C33.4867 16.4328 33.8208 16.298 34.2192 16.298C34.618 16.298 34.9519 16.4328 35.2209 16.7025C35.4903 16.9719 35.625 17.3058 35.625 17.7042V32.2355C35.625 33.1827 35.2969 33.9844 34.6406 34.6406C33.9844 35.2969 33.1827 35.625 32.2355 35.625H3.38953ZM32.8125 6.5625H30.4688C30.0703 6.5625 29.7362 6.42766 29.4666 6.15797C29.1972 5.88828 29.0625 5.55422 29.0625 5.15578C29.0625 4.75703 29.1972 4.42312 29.4666 4.15406C29.7362 3.88469 30.0703 3.75 30.4688 3.75H32.8125V1.40625C32.8125 1.00781 32.9473 0.673906 33.217 0.404531C33.4867 0.134844 33.8208 0 34.2192 0C34.618 0 34.9519 0.134844 35.2209 0.404531C35.4903 0.673906 35.625 1.00781 35.625 1.40625V3.75H37.9688C38.3672 3.75 38.7011 3.88484 38.9705 4.15453C39.2402 4.42422 39.375 4.75828 39.375 5.15672C39.375 5.55547 39.2402 5.88938 38.9705 6.15844C38.7011 6.42781 38.3672 6.5625 37.9688 6.5625H35.625V8.90625C35.625 9.30469 35.4902 9.63875 35.2205 9.90844C34.9508 10.1778 34.6167 10.3125 34.2183 10.3125C33.8195 10.3125 33.4856 10.1778 33.2166 9.90844C32.9472 9.63875 32.8125 9.30469 32.8125 8.90625V6.5625ZM17.8125 29.2786C19.9641 29.2786 21.788 28.5305 23.2842 27.0342C24.7805 25.538 25.5286 23.7141 25.5286 21.5625C25.5286 19.4109 24.7805 17.587 23.2842 16.0908C21.788 14.5945 19.9641 13.8464 17.8125 13.8464C15.6609 13.8464 13.837 14.5945 12.3408 16.0908C10.8445 17.587 10.0964 19.4109 10.0964 21.5625C10.0964 23.7141 10.8445 25.538 12.3408 27.0342C13.837 28.5305 15.6609 29.2786 17.8125 29.2786ZM17.8125 26.4666C16.4278 26.4666 15.2644 25.9953 14.3222 25.0528C13.3797 24.1106 12.9084 22.9472 12.9084 21.5625C12.9084 20.1778 13.3797 19.0144 14.3222 18.0722C15.2644 17.1297 16.4278 16.6584 17.8125 16.6584C19.1972 16.6584 20.3606 17.1297 21.3028 18.0722C22.2453 19.0144 22.7166 20.1778 22.7166 21.5625C22.7166 22.9472 22.2453 24.1106 21.3028 25.0528C20.3606 25.9953 19.1972 26.4666 17.8125 26.4666Z" fill="white"/>
</svg>
