<svg width="33" height="33" viewBox="0 0 33 33" fill="none" xmlns="http://www.w3.org/2000/svg">
<path d="M16.5 6C16.075 6 15.7188 5.85625 15.4313 5.56875C15.1438 5.28125 15 4.925 15 4.5V1.5C15 1.075 15.1438 0.71875 15.4313 0.43125C15.7188 0.14375 16.075 0 16.5 0C16.925 0 17.2813 0.14375 17.5688 0.43125C17.8563 0.71875 18 1.075 18 1.5V4.5C18 4.925 17.8563 5.28125 17.5688 5.56875C17.2813 5.85625 16.925 6 16.5 6ZM23.925 9.075C23.65 8.8 23.5125 8.45625 23.5125 8.04375C23.5125 7.63125 23.65 7.275 23.925 6.975L26.025 4.8375C26.325 4.5375 26.6812 4.3875 27.0938 4.3875C27.5063 4.3875 27.8625 4.5375 28.1625 4.8375C28.4375 5.1125 28.575 5.4625 28.575 5.8875C28.575 6.3125 28.4375 6.6625 28.1625 6.9375L26.025 9.075C25.75 9.35 25.4 9.4875 24.975 9.4875C24.55 9.4875 24.2 9.35 23.925 9.075ZM28.5 18C28.075 18 27.7188 17.8563 27.4313 17.5688C27.1438 17.2813 27 16.925 27 16.5C27 16.075 27.1438 15.7188 27.4313 15.4313C27.7188 15.1438 28.075 15 28.5 15H31.5C31.925 15 32.2812 15.1438 32.5687 15.4313C32.8562 15.7188 33 16.075 33 16.5C33 16.925 32.8562 17.2813 32.5687 17.5688C32.2812 17.8563 31.925 18 31.5 18H28.5ZM16.5 33C16.075 33 15.7188 32.8562 15.4313 32.5687C15.1438 32.2812 15 31.925 15 31.5V28.5C15 28.075 15.1438 27.7188 15.4313 27.4313C15.7188 27.1438 16.075 27 16.5 27C16.925 27 17.2813 27.1438 17.5688 27.4313C17.8563 27.7188 18 28.075 18 28.5V31.5C18 31.925 17.8563 32.2812 17.5688 32.5687C17.2813 32.8562 16.925 33 16.5 33ZM6.975 9.075L4.8375 6.975C4.5375 6.675 4.3875 6.3125 4.3875 5.8875C4.3875 5.4625 4.5375 5.1125 4.8375 4.8375C5.1125 4.5625 5.4625 4.425 5.8875 4.425C6.3125 4.425 6.6625 4.5625 6.9375 4.8375L9.075 6.975C9.35 7.25 9.4875 7.6 9.4875 8.025C9.4875 8.45 9.35 8.8 9.075 9.075C8.775 9.35 8.425 9.4875 8.025 9.4875C7.625 9.4875 7.275 9.35 6.975 9.075ZM26.025 28.1625L23.925 26.025C23.65 25.725 23.5125 25.3688 23.5125 24.9563C23.5125 24.5438 23.65 24.2 23.925 23.925C24.2 23.65 24.5438 23.5125 24.9563 23.5125C25.3688 23.5125 25.725 23.65 26.025 23.925L28.1625 26.025C28.4625 26.3 28.6063 26.65 28.5938 27.075C28.5812 27.5 28.4375 27.8625 28.1625 28.1625C27.8625 28.4625 27.5 28.6125 27.075 28.6125C26.65 28.6125 26.3 28.4625 26.025 28.1625ZM1.5 18C1.075 18 0.71875 17.8563 0.43125 17.5688C0.14375 17.2813 0 16.925 0 16.5C0 16.075 0.14375 15.7188 0.43125 15.4313C0.71875 15.1438 1.075 15 1.5 15H4.5C4.925 15 5.28125 15.1438 5.56875 15.4313C5.85625 15.7188 6 16.075 6 16.5C6 16.925 5.85625 17.2813 5.56875 17.5688C5.28125 17.8563 4.925 18 4.5 18H1.5ZM4.8375 28.1625C4.5625 27.8875 4.425 27.5375 4.425 27.1125C4.425 26.6875 4.5625 26.3375 4.8375 26.0625L6.975 23.925C7.25 23.65 7.59375 23.5125 8.00625 23.5125C8.41875 23.5125 8.775 23.65 9.075 23.925C9.375 24.225 9.525 24.5813 9.525 24.9938C9.525 25.4063 9.375 25.7625 9.075 26.0625L6.975 28.1625C6.675 28.4625 6.3125 28.6125 5.8875 28.6125C5.4625 28.6125 5.1125 28.4625 4.8375 28.1625ZM16.5 25.5C14 25.5 11.875 24.625 10.125 22.875C8.375 21.125 7.5 19 7.5 16.5C7.5 14 8.375 11.875 10.125 10.125C11.875 8.375 14 7.5 16.5 7.5C19 7.5 21.125 8.375 22.875 10.125C24.625 11.875 25.5 14 25.5 16.5C25.5 19 24.625 21.125 22.875 22.875C21.125 24.625 19 25.5 16.5 25.5ZM16.5 22.5C18.15 22.5 19.5625 21.9125 20.7375 20.7375C21.9125 19.5625 22.5 18.15 22.5 16.5C22.5 14.85 21.9125 13.4375 20.7375 12.2625C19.5625 11.0875 18.15 10.5 16.5 10.5C14.85 10.5 13.4375 11.0875 12.2625 12.2625C11.0875 13.4375 10.5 14.85 10.5 16.5C10.5 18.15 11.0875 19.5625 12.2625 20.7375C13.4375 21.9125 14.85 22.5 16.5 22.5Z" fill="white"/>
</svg>
