<svg width="23" height="15" viewBox="0 0 23 15" fill="none" xmlns="http://www.w3.org/2000/svg">
<path d="M1.25 15C0.895833 15 0.598958 14.8802 0.359375 14.6406C0.119792 14.401 0 14.1042 0 13.75C0 13.3958 0.119792 13.099 0.359375 12.8594C0.598958 12.6198 0.895833 12.5 1.25 12.5H21.25C21.6042 12.5 21.901 12.6198 22.1406 12.8594C22.3802 13.099 22.5 13.3958 22.5 13.75C22.5 14.1042 22.3802 14.401 22.1406 14.6406C21.901 14.8802 21.6042 15 21.25 15H1.25ZM1.25 8.75C0.895833 8.75 0.598958 8.63021 0.359375 8.39062C0.119792 8.15104 0 7.85417 0 7.5C0 7.14583 0.119792 6.84896 0.359375 6.60938C0.598958 6.36979 0.895833 6.25 1.25 6.25H21.25C21.6042 6.25 21.901 6.36979 22.1406 6.60938C22.3802 6.84896 22.5 7.14583 22.5 7.5C22.5 7.85417 22.3802 8.15104 22.1406 8.39062C21.901 8.63021 21.6042 8.75 21.25 8.75H1.25ZM1.25 2.5C0.895833 2.5 0.598958 2.38021 0.359375 2.14062C0.119792 1.90104 0 1.60417 0 1.25C0 0.895833 0.119792 0.598958 0.359375 0.359375C0.598958 0.119792 0.895833 0 1.25 0H21.25C21.6042 0 21.901 0.119792 22.1406 0.359375C22.3802 0.598958 22.5 0.895833 22.5 1.25C22.5 1.60417 22.3802 1.90104 22.1406 2.14062C21.901 2.38021 21.6042 2.5 21.25 2.5H1.25Z" fill="black"/>
</svg>
