<svg width="136" height="44" viewBox="0 0 136 44" fill="none" xmlns="http://www.w3.org/2000/svg">
<g clip-path="url(#clip0_15_389)">
<path d="M39.7832 33.4565C38.8539 33.1326 38.6778 32.9167 38.6778 32.5453C38.6778 32.1738 38.9452 31.8786 39.5811 31.8786C40.0473 31.8786 40.3571 32.0278 40.6962 32.3008L41.0288 31.904C40.6375 31.5992 40.2397 31.4214 39.6137 31.4214C38.7463 31.4214 38.1594 31.8532 38.1594 32.577C38.1594 33.231 38.4985 33.5485 39.5028 33.8978C40.3538 34.1962 40.6114 34.4343 40.6114 34.8534C40.6114 35.3328 40.2267 35.6312 39.6104 35.6312C39.1311 35.6312 38.7268 35.4153 38.3746 35.0883L38.0322 35.4629C38.3974 35.8249 38.9615 36.0916 39.5941 36.0916C40.5625 36.0916 41.1331 35.5391 41.1331 34.8312C41.1331 34.1232 40.8169 33.8216 39.7865 33.4596L39.7832 33.4565Z" fill="white"/>
<path d="M43.2391 32.5547C42.7859 32.5547 42.3751 32.6626 42.0686 32.8246L42.2577 33.2182C42.5414 33.0563 42.8413 32.9579 43.2065 32.9579C43.7152 32.9579 43.963 33.2024 43.963 33.7103V34.1104C43.7576 33.9992 43.4413 33.9135 43.0924 33.9135C42.4044 33.9135 41.7588 34.2374 41.7588 34.9993C41.7588 35.8184 42.3294 36.0851 42.8707 36.0851C43.3728 36.0851 43.7152 35.8565 43.963 35.5994V36.0153H44.4586V33.6468C44.4586 32.8595 43.9891 32.5483 43.2391 32.5483V32.5547ZM43.9598 35.1866C43.7478 35.4692 43.4087 35.6946 42.9587 35.6946C42.5316 35.6946 42.2446 35.4755 42.2446 34.9707C42.2446 34.5453 42.5511 34.304 43.0631 34.304C43.487 34.304 43.7315 34.3802 43.9598 34.5009V35.1898V35.1866Z" fill="white"/>
<path d="M49.4606 34.031V36.0184H49.9562V33.9516C49.9562 32.9611 49.5128 32.5547 48.8019 32.5547C48.2346 32.5547 47.9509 32.8118 47.7455 33.1357C47.5792 32.8118 47.2825 32.5547 46.7901 32.5547C46.3792 32.5547 46.0858 32.7484 45.9064 33.0404V32.6277H45.4043V36.0216H45.9064V34.0342C45.9064 33.2817 46.2032 32.9738 46.6825 32.9738C47.1618 32.9738 47.4324 33.2563 47.4324 34.0342V36.0216H47.9313V34.0342C47.9313 33.2817 48.2346 32.9738 48.7074 32.9738C49.2095 32.9738 49.4573 33.2563 49.4573 34.0342L49.4606 34.031Z" fill="white"/>
<path d="M51.9554 34.0437C51.3653 33.7833 51.1892 33.6722 51.1892 33.3833C51.1892 33.1357 51.3979 32.9642 51.7663 32.9642C52.1348 32.9642 52.363 33.0595 52.6337 33.269L52.9108 32.9103C52.6467 32.6976 52.275 32.5515 51.7989 32.5515C51.1631 32.5515 50.7099 32.9007 50.7099 33.4151C50.7099 33.958 51.0001 34.1643 51.7011 34.4564C52.3174 34.7136 52.5228 34.8691 52.5228 35.1485C52.5228 35.4787 52.2978 35.6724 51.8185 35.6724C51.4729 35.6724 51.1468 35.5359 50.8696 35.2977L50.5762 35.6502C50.9088 35.9105 51.3261 36.0851 51.8055 36.0851C52.4087 36.0851 52.9989 35.7962 52.9989 35.1263C52.9989 34.5199 52.6141 34.3326 51.9522 34.0405L51.9554 34.0437Z" fill="white"/>
<path d="M55.907 34.609C55.907 35.3519 55.5255 35.6662 55.0462 35.6662C54.4853 35.6662 54.2212 35.3392 54.2212 34.609V32.6248H53.7256V34.6916C53.7256 35.6662 54.2114 36.0885 54.9451 36.0885C55.3853 36.0885 55.7081 35.8885 55.907 35.6027V36.0187H56.4059V32.6248H55.907V34.609Z" fill="white"/>
<path d="M59.9277 36.0184V33.9516C59.9277 32.9738 59.4418 32.5547 58.7049 32.5547C58.268 32.5547 57.9419 32.7547 57.7463 33.0404V32.6277H57.2441V36.0216H57.7463V34.0342C57.7463 33.2912 58.1213 32.9738 58.6038 32.9738C59.1614 32.9738 59.4288 33.3039 59.4288 34.0342V36.0216H59.9277V36.0184Z" fill="white"/>
<path d="M61.4959 36.8947L61.6557 37.263C62.9502 37.2249 63.4197 36.7328 63.4197 35.7105V32.6214H62.9209V33.0023C62.6763 32.7293 62.3763 32.5515 61.9394 32.5515C61.209 32.5515 60.6221 33.1706 60.6221 34.3739C60.6221 35.5771 61.1764 36.0851 61.8709 36.0851C62.3437 36.0851 62.6763 35.8565 62.9209 35.5994V35.774C62.9209 36.5645 62.6567 36.8629 61.4927 36.8915L61.4959 36.8947ZM62.0013 35.666C61.4503 35.666 61.1177 35.2215 61.1177 34.3675C61.1177 33.4563 61.4014 32.9706 61.9818 32.9706C62.3959 32.9706 62.7317 33.196 62.9241 33.4786V35.1771C62.6796 35.4755 62.3731 35.666 62.0013 35.666Z" fill="white"/>
<path d="M68.9171 33.7231C68.9171 32.1706 68.0171 31.4912 66.7976 31.4912H65.5684V36.0185H66.7063C67.9487 36.0185 68.9171 35.3645 68.9171 33.7231ZM66.0868 31.9484H66.7585C67.828 31.9484 68.3986 32.5834 68.3986 33.739C68.3986 35.0407 67.7726 35.5582 66.7716 35.5582H66.0868V31.9484Z" fill="white"/>
<path d="M70.245 33.0436V32.6245H69.7461V36.0184H70.245V34.0246C70.245 33.377 70.5189 32.9992 71.0047 32.9992C71.2362 32.9992 71.3862 33.05 71.5264 33.1293L71.6503 32.6404C71.533 32.5896 71.3667 32.5579 71.1058 32.5579C70.7308 32.5579 70.4015 32.7769 70.245 33.0468V33.0436Z" fill="white"/>
<path d="M74.6301 35.6946L74.3954 35.3454C74.0758 35.5517 73.8378 35.6692 73.4302 35.6692C72.8628 35.6692 72.5074 35.2088 72.4618 34.4882H74.7834C74.7997 34.4088 74.8062 34.3389 74.8062 34.2246C74.8062 33.2563 74.3106 32.5579 73.4009 32.5579C72.5726 32.5579 71.9629 33.2278 71.9629 34.304C71.9629 35.6406 72.7389 36.0914 73.378 36.0914C73.903 36.0914 74.2095 35.9549 74.6301 35.6978V35.6946ZM73.4009 32.9738C74.0106 32.9738 74.3041 33.4341 74.3432 34.0913H72.4618C72.5205 33.3325 72.8824 32.9738 73.4009 32.9738Z" fill="white"/>
<path d="M76.4693 36.0883C76.9682 36.0883 77.3106 35.8597 77.5551 35.6025V36.0184H78.054V33.65C78.054 32.8626 77.5845 32.5515 76.8345 32.5515C76.3813 32.5515 75.9704 32.6595 75.6639 32.8214L75.8498 33.2151C76.1367 33.0531 76.4335 32.9547 76.7987 32.9547C77.3106 32.9547 77.5551 33.1992 77.5551 33.7072V34.1072C77.3497 33.9961 77.0367 33.9103 76.6878 33.9103C75.9965 33.9103 75.3477 34.2342 75.3477 34.9961C75.3477 35.8152 75.9215 36.0819 76.4661 36.0819L76.4693 36.0883ZM76.6617 34.3008C77.0856 34.3008 77.3334 34.377 77.5584 34.4977V35.1866C77.3465 35.4692 77.0073 35.6946 76.5574 35.6946C76.1335 35.6946 75.8433 35.4755 75.8433 34.9707C75.8433 34.5453 76.153 34.304 76.6617 34.304V34.3008Z" fill="white"/>
<path d="M83.0559 34.031V36.0184H83.5548V33.9516C83.5548 32.9611 83.1114 32.5547 82.4005 32.5547C81.8365 32.5547 81.5495 32.8118 81.3473 33.1357C81.181 32.8118 80.8843 32.5547 80.392 32.5547C79.9779 32.5547 79.6877 32.7484 79.5083 33.0404V32.6277H79.0127V36.0216H79.5083V34.0342C79.5083 33.2817 79.8083 32.9738 80.2876 32.9738C80.7669 32.9738 81.0408 33.2563 81.0408 34.0342V36.0216H81.5365V34.0342C81.5365 33.2817 81.8397 32.9738 82.3158 32.9738C82.8179 32.9738 83.0657 33.2563 83.0657 34.0342L83.0559 34.031Z" fill="white"/>
<path d="M39.7832 40.1903C38.8507 39.8665 38.6811 39.6538 38.6811 39.2792C38.6811 38.9045 38.9485 38.6156 39.5843 38.6156C40.0506 38.6156 40.3636 38.7617 40.6995 39.0347L41.0321 38.641C40.6408 38.3394 40.2397 38.1584 39.6169 38.1584C38.7463 38.1584 38.1627 38.5839 38.1627 39.3141C38.1627 39.9681 38.5018 40.2824 39.5061 40.6316C40.3571 40.9333 40.6147 41.1682 40.6147 41.5904C40.6147 42.0667 40.2299 42.3651 39.6104 42.3651C39.1311 42.3651 38.7268 42.1492 38.3746 41.8222L38.0322 42.1968C38.3974 42.5588 38.9615 42.8223 39.5941 42.8223C40.5625 42.8223 41.1299 42.273 41.1299 41.5619C41.1299 40.8507 40.8136 40.5523 39.7865 40.1903H39.7832Z" fill="white"/>
<path d="M43.246 39.7079C43.5981 39.7079 43.8296 39.8285 44.0807 40.0508L44.3807 39.6888C44.1068 39.4539 43.7448 39.2856 43.2786 39.2856C42.5482 39.2856 41.7754 39.8158 41.7754 41.0699C41.7754 42.2541 42.4764 42.8192 43.2427 42.8192C43.7318 42.8192 44.0709 42.6383 44.3644 42.3462L44.0644 42.0382C43.8264 42.2636 43.6014 42.397 43.2623 42.397C42.646 42.397 42.2775 41.8604 42.2775 41.0255C42.2775 40.1905 42.6982 39.7015 43.2427 39.7015L43.246 39.7079Z" fill="white"/>
<path d="M46.5096 39.2887C46.0727 39.2887 45.7434 39.4887 45.5444 39.7744V38.1807H45.0488V42.7588H45.5444V40.7713C45.5444 40.0284 45.926 39.7109 46.4085 39.7109C46.9694 39.7109 47.2335 40.0379 47.2335 40.7713V42.7588H47.7324V40.6856C47.7324 39.7109 47.2465 39.2887 46.5096 39.2887Z" fill="white"/>
<path d="M49.9563 39.2888C49.1086 39.2888 48.4336 39.9079 48.4336 41.0604C48.4336 42.2128 49.0825 42.8256 49.9303 42.8256C50.778 42.8256 51.4595 42.1874 51.4595 41.035C51.4595 39.8825 50.8041 39.2888 49.9563 39.2888ZM49.9466 42.4033C49.3401 42.4033 48.9325 41.9398 48.9325 41.0477C48.9325 40.1555 49.3401 39.7111 49.9466 39.7111C50.553 39.7111 50.9606 40.1555 50.9606 41.0477C50.9606 41.9398 50.5498 42.4033 49.9466 42.4033Z" fill="white"/>
<path d="M52.7088 38.1775H52.21V42.7556H52.7088V38.1775Z" fill="white"/>
<path d="M54.9878 39.2888C54.5346 39.2888 54.1238 39.3999 53.8205 39.5619L54.0064 39.9587C54.2933 39.7968 54.5933 39.6984 54.9585 39.6984C55.4672 39.6984 55.715 39.946 55.715 40.4476V40.8508C55.5095 40.7397 55.1965 40.654 54.8476 40.654C54.1564 40.654 53.5107 40.9778 53.5107 41.743C53.5107 42.5621 54.0814 42.8256 54.6259 42.8256C55.1248 42.8256 55.4672 42.6002 55.715 42.343V42.7589H56.2138V40.3937C56.2138 39.6 55.7411 39.292 54.9911 39.292L54.9878 39.2888ZM55.7117 41.9208C55.503 42.2001 55.1574 42.4287 54.7107 42.4287C54.2868 42.4287 53.9998 42.2097 53.9998 41.7049C53.9998 41.2763 54.3063 41.0413 54.8183 41.0413C55.2422 41.0413 55.4867 41.1112 55.7117 41.235V41.9208Z" fill="white"/>
<path d="M57.6581 39.7809V39.3555H57.1592V42.7526H57.6581V40.7588C57.6581 40.1143 57.9254 39.7301 58.4145 39.7301C58.6493 39.7301 58.7993 39.7809 58.9395 39.8603L59.0667 39.3682C58.946 39.3174 58.783 39.2825 58.5221 39.2825C58.1504 39.2825 57.8146 39.5015 57.6613 39.7777L57.6581 39.7809Z" fill="white"/>
<path d="M60.9773 40.781C60.3871 40.5207 60.2077 40.4032 60.2077 40.1206C60.2077 39.8762 60.4197 39.7015 60.7849 39.7015C61.1501 39.7015 61.3848 39.8 61.6555 40.0063L61.9326 39.6507C61.6653 39.438 61.2968 39.2888 60.8175 39.2888C60.1849 39.2888 59.7252 39.6381 59.7252 40.1555C59.7252 40.673 60.0186 40.9048 60.7164 41.1937C61.3327 41.4509 61.5381 41.6096 61.5381 41.8858C61.5381 42.2192 61.3131 42.4097 60.837 42.4097C60.4882 42.4097 60.1653 42.2732 59.8849 42.035L59.5947 42.3906C59.9273 42.651 60.3447 42.8224 60.824 42.8224C61.4272 42.8224 62.0174 42.5303 62.0174 41.8668C62.0174 41.2572 61.6327 41.0731 60.974 40.781H60.9773Z" fill="white"/>
<path d="M64.2941 39.2887C63.8507 39.2887 63.5279 39.4887 63.329 39.7744V38.1807H62.8301V42.7588H63.329V40.7713C63.329 40.0284 63.7072 39.7109 64.193 39.7109C64.7506 39.7109 65.0147 40.0379 65.0147 40.7713V42.7588H65.5136V40.6856C65.5136 39.7109 65.031 39.2887 64.2941 39.2887Z" fill="white"/>
<path d="M66.9937 39.3555H66.498V42.7525H66.9937V39.3555Z" fill="white"/>
<path d="M66.7555 38.0601C66.5533 38.0601 66.3936 38.2156 66.3936 38.4125C66.3936 38.6093 66.5533 38.7553 66.7555 38.7553C66.9414 38.7553 67.1011 38.5966 67.1011 38.4125C67.1011 38.2156 66.9414 38.0601 66.7555 38.0601Z" fill="white"/>
<path d="M69.5469 39.2888C69.0773 39.2888 68.7447 39.5174 68.4969 39.7746V39.3587H67.998V44.0034H68.4969V42.3748C68.7415 42.6446 69.0415 42.8256 69.4817 42.8256C70.2088 42.8256 70.7957 42.2033 70.7957 41.0032C70.7957 39.8031 70.2414 39.2888 69.5469 39.2888ZM69.4393 42.4033C69.0284 42.4033 68.6893 42.1779 68.4969 41.8922V40.1968C68.7415 39.9016 69.048 39.7079 69.4197 39.7079C69.974 39.7079 70.3066 40.1524 70.3066 41.0064C70.3066 41.9176 70.0197 42.4002 69.4425 42.4002L69.4393 42.4033Z" fill="white"/>
<path d="M73.4335 38.6854H75.6442V38.2283H72.915V42.7556H73.4335V40.6443H74.7084V40.1871H73.4335V38.6854Z" fill="white"/>
<path d="M77.1569 39.2888C76.3091 39.2888 75.6309 39.9079 75.6309 41.0604C75.6309 42.2128 76.283 42.8256 77.1308 42.8256C77.9786 42.8256 78.66 42.1874 78.66 41.035C78.66 39.8825 78.0112 39.2888 77.1569 39.2888ZM77.1471 42.4033C76.5406 42.4033 76.1395 41.9398 76.1395 41.0477C76.1395 40.1555 76.5439 39.7111 77.1471 39.7111C77.7503 39.7111 78.1644 40.1555 78.1644 41.0477C78.1644 41.9398 77.7536 42.4033 77.1471 42.4033Z" fill="white"/>
<path d="M81.4089 41.3429C81.4089 42.0858 81.034 42.4033 80.5481 42.4033C79.9905 42.4033 79.7232 42.0763 79.7232 41.3429V39.3555H79.2275V41.4255C79.2275 42.4001 79.7134 42.8224 80.4503 42.8224C80.884 42.8224 81.21 42.6255 81.4089 42.3398V42.7557H81.9111V39.3586H81.4089V41.3461V41.3429Z" fill="white"/>
<path d="M84.2069 39.2888C83.7699 39.2888 83.4439 39.4888 83.245 39.7746V39.3587H82.7461V42.7557H83.245V40.7683C83.245 40.0254 83.6232 39.7079 84.1091 39.7079C84.6666 39.7079 84.9308 40.0349 84.9308 40.7683V42.7557H85.4296V40.6826C85.4296 39.7079 84.9438 39.2856 84.2069 39.2856V39.2888Z" fill="white"/>
<path d="M88.4257 39.7427C88.1779 39.4696 87.8812 39.2855 87.441 39.2855C86.7106 39.2855 86.127 39.9046 86.127 41.111C86.127 42.3175 86.678 42.8223 87.3758 42.8223C87.8486 42.8223 88.1779 42.5969 88.4225 42.3397V42.7556H88.9214V38.1775H88.4225V39.7427H88.4257ZM88.4257 41.9143C88.1779 42.2095 87.8747 42.4032 87.503 42.4032C86.9519 42.4032 86.6193 41.9587 86.6193 41.1047C86.6193 40.1903 86.903 39.7078 87.4834 39.7078C87.8942 39.7078 88.2301 39.9332 88.4257 40.2189V41.9111V41.9143Z" fill="white"/>
<path d="M91.0344 39.2888C90.5844 39.2888 90.1736 39.3999 89.8671 39.5619L90.0497 39.9587C90.3366 39.7968 90.6366 39.6984 91.0018 39.6984C91.5104 39.6984 91.755 39.946 91.755 40.4476V40.8508C91.5496 40.7397 91.2366 40.654 90.8844 40.654C90.1964 40.654 89.5508 40.9778 89.5508 41.743C89.5508 42.5621 90.1247 42.8256 90.6692 42.8256C91.1681 42.8256 91.5104 42.6002 91.755 42.343V42.7589H92.2539V40.3937C92.2539 39.6 91.7843 39.292 91.0311 39.292L91.0344 39.2888ZM91.7583 41.9208C91.5463 42.2001 91.2105 42.4287 90.754 42.4287C90.3333 42.4287 90.0497 42.2097 90.0497 41.7049C90.0497 41.2763 90.3529 41.0413 90.8648 41.0413C91.2887 41.0413 91.5365 41.1112 91.7583 41.235V41.9208Z" fill="white"/>
<path d="M93.8456 38.1775H93.3435V39.3554H92.9131V39.7649H93.3435V42.054C93.3435 42.6159 93.5783 42.8191 94.0119 42.8191C94.2728 42.8191 94.4586 42.781 94.651 42.7048L94.6869 42.2857C94.5271 42.3492 94.3967 42.381 94.1945 42.381C93.9304 42.381 93.8456 42.2762 93.8456 41.9746V39.7649H94.7097V39.3554H93.8456V38.1775Z" fill="white"/>
<path d="M95.8411 38.0601C95.6357 38.0601 95.4727 38.2156 95.4727 38.4125C95.4727 38.6093 95.6357 38.7553 95.8411 38.7553C96.027 38.7553 96.1835 38.5966 96.1835 38.4125C96.1835 38.2156 96.0237 38.0601 95.8411 38.0601Z" fill="white"/>
<path d="M96.079 39.3555H95.5801V42.7525H96.079V39.3555Z" fill="white"/>
<path d="M98.3551 39.2888C97.5073 39.2888 96.8291 39.9079 96.8291 41.0604C96.8291 42.2128 97.478 42.8256 98.329 42.8256C99.1801 42.8256 99.855 42.1874 99.855 41.035C99.855 39.8825 99.2029 39.2888 98.3551 39.2888ZM98.3421 42.4033C97.7388 42.4033 97.3313 41.9398 97.3313 41.0477C97.3313 40.1555 97.7388 39.7111 98.3421 39.7111C98.9453 39.7111 99.3594 40.1555 99.3594 41.0477C99.3594 41.9398 98.9486 42.4033 98.3421 42.4033Z" fill="white"/>
<path d="M102.036 39.2888C101.599 39.2888 101.273 39.4888 101.071 39.7746V39.3587H100.572V42.7557H101.071V40.7683C101.071 40.0254 101.449 39.7079 101.935 39.7079C102.493 39.7079 102.76 40.0349 102.76 40.7683V42.7557H103.256V40.6826C103.256 39.7079 102.77 39.2856 102.036 39.2856V39.2888Z" fill="white"/>
<path d="M57.2145 22.5793C55.2124 22.5825 53.5625 24.1064 53.5625 26.0177C53.5625 27.9289 55.2124 29.437 57.2145 29.4433C59.2361 29.437 60.8697 27.9099 60.8697 26.0177C60.8697 24.1255 59.2361 22.5825 57.2145 22.5793ZM57.1656 27.875C56.1189 27.875 55.3298 27.0432 55.3298 26.0177C55.3298 24.9922 56.1743 24.1445 57.2177 24.1445C58.2611 24.1445 59.0763 24.9763 59.0763 26.0177C59.0763 27.059 58.222 27.875 57.1688 27.875H57.1656Z" fill="white"/>
<path d="M40.4581 20.2141C41.0157 20.7507 41.6548 21.2205 42.2841 21.5221L42.3493 21.5571L43.4286 20.3157L43.3243 20.2586C42.3004 19.7188 41.4983 19.0362 40.9733 18.1759C40.4516 17.3282 40.1842 16.344 40.1842 15.1661V14.0613H38.2539V15.0487C38.2539 16.3249 37.9572 17.3282 37.3996 18.2076C36.7768 19.1823 35.854 19.9665 34.6737 20.6935L34.5693 20.757L35.7399 21.938L35.8051 21.9031C36.5029 21.5348 37.2431 20.9665 37.8855 20.3316C38.443 19.776 38.9256 19.1823 39.2191 18.6203C39.5028 19.1728 39.9364 19.7347 40.4581 20.2173V20.2141Z" fill="white"/>
<path d="M38.3682 28.6306H46.4481V23.2556H38.3682V28.6306ZM40.1844 24.7732H44.6319V27.113H40.1844V24.7732Z" fill="white"/>
<path d="M65.3076 28.6306H74.4441V23.2556H65.3076V28.6306ZM67.1043 24.7732H72.6507V27.113H67.1043V24.7732Z" fill="white"/>
<path d="M46.4802 13.7439H44.6836V22.6398H46.4802V18.703H48.5834V17.1219H46.4802V13.7439Z" fill="white"/>
<path d="M83.7304 20.668C84.3206 21.1664 84.9955 21.5855 85.6314 21.8554L85.6966 21.884L86.6683 20.6045L86.5639 20.5537C85.6379 20.0934 84.813 19.5219 84.2195 18.8234C83.6163 18.1123 83.2576 17.2551 83.2576 16.2232V15.9216H85.9314V14.3914H78.6731V15.9216H81.3436V16.2899C81.3436 17.2297 81.024 18.1059 80.4925 18.8647C79.8697 19.7759 78.96 20.5093 78.0764 20.9855L77.959 21.0458L79.1524 22.2491L79.2176 22.2173C79.86 21.8617 80.5708 21.3252 81.1773 20.722C81.6631 20.2267 82.1001 19.7029 82.3674 19.179C82.6902 19.687 83.1859 20.1949 83.7337 20.668H83.7304Z" fill="white"/>
<path d="M96.7246 24.8081H103.256V28.6274H105.069V23.2905H96.7246V24.8081Z" fill="white"/>
<path d="M101.231 18.6902C101.231 17.8488 100.843 17.0742 100.269 16.4837H102.062V14.9693H98.6384V13.3025H96.6918V14.9693H93.1865V16.4837H95.019C94.4582 17.0742 94.0702 17.8425 94.0702 18.6902C94.0702 20.5665 95.6581 22.0904 97.6439 22.0968C99.6296 22.0904 101.227 20.5665 101.231 18.6902ZM95.8016 18.6203C95.8016 17.5822 96.7015 16.7027 97.6439 16.7027C98.5862 16.7027 99.4829 17.5853 99.4862 18.6203C99.4862 19.6426 98.5862 20.5252 97.6439 20.5284C96.6983 20.5252 95.8049 19.6426 95.8016 18.6203Z" fill="white"/>
<path d="M105.069 13.7439H103.275V22.6715H105.069V19.2649H107.178V17.6839H105.069V13.7439Z" fill="white"/>
<path d="M89.851 13.7439H88.0576V22.6715H89.851V18.703H91.9574V17.1219H89.851V13.7439Z" fill="white"/>
<path d="M59.4097 16.3917H56.5859V17.9569H59.4097V22.9541H61.2063V13.7439H59.4097V16.3917Z" fill="white"/>
<path d="M54.8478 20.4459C55.4086 20.9792 56.064 21.4491 56.69 21.7666L56.7585 21.8047L57.8378 20.5633L57.7335 20.5062C56.7096 19.9823 55.9238 19.3029 55.3955 18.4552C54.8608 17.6139 54.5934 16.5916 54.5934 15.4138V14.0613H52.6598V15.2995C52.6598 16.5757 52.3664 17.5758 51.8218 18.4394C51.2023 19.4299 50.26 20.2205 49.0796 20.9411L48.9785 21.0046L50.1556 22.1889L50.2143 22.1508C50.9088 21.7793 51.6327 21.2428 52.2751 20.63C52.8555 20.0681 53.3381 19.4553 53.6315 18.868C53.9087 19.4045 54.3326 19.9506 54.8478 20.449V20.4459Z" fill="white"/>
<path d="M86 22.5793C83.9979 22.5825 82.348 24.1064 82.3447 26.0177C82.348 27.9099 83.9946 29.437 86 29.4433C88.0183 29.437 89.6552 27.9099 89.6552 26.0177C89.6552 24.1255 88.0183 22.5825 86 22.5793ZM85.9478 27.875C84.9044 27.875 84.1088 27.0432 84.1088 26.0177C84.1088 24.9922 84.95 24.1445 86 24.1445C87.0499 24.1445 87.8553 24.9763 87.8586 26.0177C87.8586 27.04 87.001 27.875 85.9478 27.875Z" fill="white"/>
<path d="M67.4954 18.8457H69.292V14.3025H64.4434V15.8137H67.4954V18.8457Z" fill="white"/>
<path d="M72.8886 18.8457H74.6885V14.3025H69.8398V15.8137H72.8886V18.8457Z" fill="white"/>
<path d="M118.685 17.7664H117.175V13.9915H115.477V28.2465H117.175V19.4808H118.685V28.6275H120.446V13.7439H118.685V17.7664Z" fill="white"/>
<path d="M112.986 19.738C112.581 18.8776 112.415 17.9156 112.415 16.7346V16.1726H114.453V14.5693H108.532V16.1726H110.635V16.7663C110.635 17.8839 110.485 18.7982 110.123 19.6459C109.702 20.6206 108.995 21.4968 107.866 22.4366L107.788 22.5064L108.903 23.5827L108.972 23.5319C109.533 23.1287 110.119 22.5445 110.609 21.9413C111.023 21.4333 111.372 20.9063 111.59 20.4428C111.815 20.8936 112.167 21.4111 112.578 21.8937C113.054 22.4588 113.592 22.9953 114.107 23.316L114.176 23.3604L115.115 22.2683L115.04 22.2016C114.029 21.3444 113.403 20.5793 112.992 19.7348L112.986 19.738Z" fill="white"/>
<path d="M62.9404 20.9602H68.9042V22.6556H70.8509V20.9602H76.9092V19.4395H62.9404V20.9602Z" fill="white"/>
<path d="M130.675 20.4743H124.604V15.9756H129.227V14.3914H122.784V22.011H130.675V20.4743Z" fill="white"/>
<path d="M127.241 23.8843H125.425V28.6275H133.919V27.0655H127.241V23.8843Z" fill="white"/>
<path d="M133.876 17.8648V13.7407H132.083V24.7225H133.876V19.4459H135.999V17.8648H133.876Z" fill="white"/>
<path d="M38.0879 9.14987L33.4349 7.27354L38.0879 5.39721L37.2597 3.45739L32.61 5.33372L34.537 0.803233L32.5415 0L30.6177 4.53049L28.6906 0L26.6951 0.803233L28.6222 5.33372L23.9724 3.45739L23.1475 5.39721L27.7972 7.27354L23.1475 9.14987L23.9724 11.0897L28.6222 9.21336L26.6951 13.7438L28.6906 14.5471L30.6177 10.0198L32.5415 14.5471L34.537 13.7407L32.61 9.21336L37.2597 11.0897L38.0879 9.14987Z" fill="#009FE3"/>
<path d="M7.98263 21.7889H11.077V13.7439H0.496094V16.4552H7.98263V21.7889Z" fill="#009FE3"/>
<path d="M20.0529 21.7889H23.1473V13.7439H12.5664V16.4552H20.0529V21.7889Z" fill="#009FE3"/>
<path d="M0 25.9511H20.0532V30.0942H23.1476V23.2397H0V25.9511Z" fill="#009FE3"/>
<path d="M7.48633 42.7555H23.1474V31.488H7.48633V42.7555ZM10.5775 34.2025H20.053V40.0474H10.5775V34.2025Z" fill="#009FE3"/>
</g>
<defs>
<clipPath id="clip0_15_389">
<rect width="136" height="44" fill="white"/>
</clipPath>
</defs>
</svg>
