<svg width="24" height="14" viewBox="0 0 24 14" fill="none" xmlns="http://www.w3.org/2000/svg">
<path d="M11.4933 3.81662L2.84054 12.631C2.54631 12.9303 2.17444 13.0856 1.72494 13.0969C1.2758 13.1079 0.894343 12.9595 0.580572 12.6518C0.267155 12.3438 0.108407 11.9685 0.104328 11.5261C0.100249 11.0837 0.25205 10.7056 0.559734 10.3918L10.1074 0.666452C10.3064 0.464119 10.5168 0.320651 10.7387 0.236047C10.9606 0.151442 11.2007 0.107949 11.4591 0.105567C11.7175 0.103185 11.9583 0.142243 12.1817 0.222741C12.4051 0.303239 12.6182 0.442803 12.8209 0.641432L22.5462 10.1891C22.8456 10.4833 23.0009 10.8552 23.0122 11.3047C23.0231 11.7538 22.8748 12.1353 22.5671 12.4491C22.259 12.7625 21.8838 12.9212 21.4414 12.9253C20.999 12.9294 20.6209 12.7776 20.3071 12.4699L11.4933 3.81662Z" fill="black"/>
</svg>
