<svg width="12" height="13" viewBox="0 0 12 13" fill="none" xmlns="http://www.w3.org/2000/svg">
<path d="M5.20521 9.63854V0.791667C5.20521 0.567361 5.28108 0.37934 5.43281 0.227604C5.58455 0.0758681 5.77257 0 5.99688 0C6.22118 0 6.4092 0.0758681 6.56094 0.227604C6.71267 0.37934 6.78854 0.567361 6.78854 0.791667V9.63854L10.6677 5.75937C10.826 5.60104 11.0108 5.52517 11.2219 5.53177C11.433 5.53837 11.6177 5.62083 11.776 5.77917C11.9212 5.9375 11.997 6.12222 12.0036 6.33333C12.0102 6.54444 11.9344 6.72917 11.776 6.8875L6.55104 12.1125C6.47188 12.1917 6.38611 12.2477 6.29375 12.2807C6.20139 12.3137 6.10243 12.3302 5.99688 12.3302C5.89132 12.3302 5.79236 12.3137 5.7 12.2807C5.60764 12.2477 5.52188 12.1917 5.44271 12.1125L0.217708 6.8875C0.0725694 6.74236 0 6.56094 0 6.34323C0 6.12552 0.0725694 5.9375 0.217708 5.77917C0.376042 5.62083 0.564063 5.54167 0.781771 5.54167C0.999479 5.54167 1.1875 5.62083 1.34583 5.77917L5.20521 9.63854Z" fill="white" fill-opacity="0.5"/>
</svg>
