<svg width="20" height="20" viewBox="0 0 20 20" fill="none" xmlns="http://www.w3.org/2000/svg">
<path d="M1.08333 19.5C0.776389 19.5 0.519097 19.3962 0.311458 19.1885C0.103819 18.9809 0 18.7236 0 18.4167C0 18.1097 0.103819 17.8524 0.311458 17.6448C0.519097 17.4372 0.776389 17.3333 1.08333 17.3333H18.4167C18.7236 17.3333 18.9809 17.4372 19.1885 17.6448C19.3962 17.8524 19.5 18.1097 19.5 18.4167C19.5 18.7236 19.3962 18.9809 19.1885 19.1885C18.9809 19.3962 18.7236 19.5 18.4167 19.5H1.08333ZM1.08333 10.8333C0.776389 10.8333 0.519097 10.7295 0.311458 10.5219C0.103819 10.3142 0 10.0569 0 9.75C0 9.44306 0.103819 9.18576 0.311458 8.97813C0.519097 8.77049 0.776389 8.66667 1.08333 8.66667H18.4167C18.7236 8.66667 18.9809 8.77049 19.1885 8.97813C19.3962 9.18576 19.5 9.44306 19.5 9.75C19.5 10.0569 19.3962 10.3142 19.1885 10.5219C18.9809 10.7295 18.7236 10.8333 18.4167 10.8333H1.08333ZM1.08333 2.16667C0.776389 2.16667 0.519097 2.06285 0.311458 1.85521C0.103819 1.64757 0 1.39028 0 1.08333C0 0.776389 0.103819 0.519097 0.311458 0.311458C0.519097 0.103819 0.776389 0 1.08333 0H18.4167C18.7236 0 18.9809 0.103819 19.1885 0.311458C19.3962 0.519097 19.5 0.776389 19.5 1.08333C19.5 1.39028 19.3962 1.64757 19.1885 1.85521C18.9809 2.06285 18.7236 2.16667 18.4167 2.16667H1.08333Z" fill="white"/>
</svg>
