<svg width="9" height="16" viewBox="0 0 9 16" fill="none" xmlns="http://www.w3.org/2000/svg">
<path d="M6.10605 7.52083L0.287298 1.70208C0.0893817 1.50417 -0.006278 1.26997 0.00031922 0.999479C0.00691644 0.728993 0.109173 0.494792 0.30709 0.296875C0.505007 0.0989583 0.739208 0 1.00969 0C1.28018 0 1.51438 0.0989583 1.7123 0.296875L7.78834 6.39271C7.94667 6.55104 8.06542 6.72917 8.14459 6.92708C8.22376 7.125 8.26334 7.32292 8.26334 7.52083C8.26334 7.71875 8.22376 7.91667 8.14459 8.11458C8.06542 8.3125 7.94667 8.49063 7.78834 8.64896L1.69251 14.7448C1.49459 14.9427 1.26369 15.0384 0.999798 15.0318C0.735909 15.0252 0.505007 14.9229 0.30709 14.725C0.109173 14.5271 0.0102151 14.2929 0.0102151 14.0224C0.0102151 13.7519 0.109173 13.5177 0.30709 13.3198L6.10605 7.52083Z" fill="#1C1B1F"/>
</svg>
