<svg width="22" height="26" viewBox="0 0 22 26" fill="none" xmlns="http://www.w3.org/2000/svg">
<path d="M4.79471 22.6667V24.0015C4.79471 24.4178 4.64891 24.7716 4.35731 25.063C4.06572 25.3543 3.71155 25.5 3.29481 25.5C2.87831 25.5 2.52474 25.3543 2.23408 25.063C1.94343 24.7716 1.7981 24.4178 1.7981 24.0015V21.6424C1.35492 21.3064 0.944444 20.831 0.566667 20.2162C0.188889 19.6014 0 18.9107 0 18.1443V4.95833C0 3.24369 0.852243 1.98865 2.55673 1.19319C4.26098 0.397729 6.95028 0 10.6246 0C14.4317 0 17.1543 0.382264 18.7924 1.14679C20.4308 1.91108 21.25 3.1816 21.25 4.95833V18.1443C21.25 18.9107 21.0611 19.6014 20.6833 20.2162C20.3056 20.831 19.8951 21.3064 19.4519 21.6424V24.0015C19.4519 24.4178 19.3061 24.7716 19.0145 25.063C18.7227 25.3543 18.3685 25.5 17.952 25.5C17.5353 25.5 17.1816 25.3543 16.8909 25.063C16.6005 24.7716 16.4553 24.4178 16.4553 24.0015V22.6667H4.79471ZM2.125 11.3333H19.125V6.0481H2.125V11.3333ZM5.66985 18.8526C6.18528 18.8526 6.62233 18.6721 6.98098 18.3111C7.33987 17.9503 7.51931 17.5122 7.51931 16.9968C7.51931 16.4814 7.33881 16.0443 6.97779 15.6857C6.61701 15.3268 6.17891 15.1474 5.66348 15.1474C5.14805 15.1474 4.71101 15.3279 4.35235 15.6889C3.99347 16.0497 3.81402 16.4878 3.81402 17.0032C3.81402 17.5186 3.99453 17.9557 4.35554 18.3143C4.71632 18.6732 5.15442 18.8526 5.66985 18.8526ZM15.5865 18.8526C16.102 18.8526 16.539 18.6721 16.8976 18.3111C17.2565 17.9503 17.436 17.5122 17.436 16.9968C17.436 16.4814 17.2555 16.0443 16.8945 15.6857C16.5337 15.3268 16.0956 15.1474 15.5801 15.1474C15.0647 15.1474 14.6277 15.3279 14.269 15.6889C13.9101 16.0497 13.7307 16.4878 13.7307 17.0032C13.7307 17.5186 13.9112 17.9557 14.2722 18.3143C14.633 18.6732 15.0711 18.8526 15.5865 18.8526ZM2.51742 3.9231H18.8201C18.5202 3.35833 17.761 2.91739 16.5424 2.60029C15.3236 2.28343 13.3657 2.125 10.6686 2.125C8.01515 2.125 6.07904 2.29075 4.86023 2.62225C3.64142 2.95375 2.86049 3.38737 2.51742 3.9231ZM4.95833 20.5417H16.2917C17.0708 20.5417 17.7378 20.2642 18.2927 19.7094C18.8476 19.1545 19.125 18.4875 19.125 17.7083V13.4583H2.125V17.7083C2.125 18.4875 2.40243 19.1545 2.95729 19.7094C3.51215 20.2642 4.17917 20.5417 4.95833 20.5417Z" fill="white" fill-opacity="0.8"/>
</svg>
