<svg width="34" height="34" viewBox="0 0 34 34" fill="none" xmlns="http://www.w3.org/2000/svg">
<path d="M19.4596 16.4998L13.6408 10.6811C13.4429 10.4832 13.3472 10.249 13.3538 9.97848C13.3604 9.708 13.4627 9.4738 13.6606 9.27588C13.8585 9.07796 14.0927 8.979 14.3632 8.979C14.6337 8.979 14.8679 9.07796 15.0658 9.27588L21.1419 15.3717C21.3002 15.53 21.4189 15.7082 21.4981 15.9061C21.5773 16.104 21.6169 16.3019 21.6169 16.4998C21.6169 16.6978 21.5773 16.8957 21.4981 17.0936C21.4189 17.2915 21.3002 17.4696 21.1419 17.628L15.046 23.7238C14.8481 23.9217 14.6172 24.0174 14.3533 24.0108C14.0894 24.0042 13.8585 23.9019 13.6606 23.704C13.4627 23.5061 13.3637 23.2719 13.3637 23.0014C13.3637 22.7309 13.4627 22.4967 13.6606 22.2988L19.4596 16.4998Z" fill="white"/>
<rect x="0.5" y="0.5" width="33" height="33" rx="16.5" stroke="white"/>
</svg>
