<svg width="6" height="10" viewBox="0 0 6 10" fill="none" xmlns="http://www.w3.org/2000/svg">
<path d="M4.01224 4.99802L0.202871 1.18889C0.0734989 1.05936 0.00725476 0.896559 0.00413766 0.700476C0.001176 0.504549 0.0674201 0.338782 0.20287 0.203176C0.338476 0.0677256 0.502763 4.48312e-07 0.695729 4.31443e-07C0.888695 4.14573e-07 1.05298 0.0677256 1.18859 0.203176L5.39168 4.40627C5.47912 4.49386 5.54084 4.58622 5.57685 4.68332C5.61286 4.78043 5.63086 4.88533 5.63086 4.99802C5.63086 5.11072 5.61286 5.21562 5.57685 5.31272C5.54084 5.40983 5.47912 5.50218 5.39168 5.58978L1.18859 9.79287C1.05906 9.92224 0.896256 9.98849 0.700172 9.9916C0.504245 9.99457 0.338477 9.92832 0.202871 9.79287C0.0674209 9.65727 -0.000304266 9.49298 -0.000304283 9.30001C-0.000304299 9.10705 0.0674209 8.94276 0.202871 8.80715L4.01224 4.99802Z" fill="black"/>
</svg>
