<svg width="25" height="17" viewBox="0 0 25 17" fill="none" xmlns="http://www.w3.org/2000/svg">
<path d="M1.38889 16.6667C0.99537 16.6667 0.665509 16.5336 0.399306 16.2674C0.133102 16.0012 0 15.6713 0 15.2778C0 14.8843 0.133102 14.5544 0.399306 14.2882C0.665509 14.022 0.99537 13.8889 1.38889 13.8889H23.6111C24.0046 13.8889 24.3345 14.022 24.6007 14.2882C24.8669 14.5544 25 14.8843 25 15.2778C25 15.6713 24.8669 16.0012 24.6007 16.2674C24.3345 16.5336 24.0046 16.6667 23.6111 16.6667H1.38889ZM1.38889 9.72222C0.99537 9.72222 0.665509 9.58912 0.399306 9.32292C0.133102 9.05671 0 8.72685 0 8.33333C0 7.93981 0.133102 7.60995 0.399306 7.34375C0.665509 7.07755 0.99537 6.94444 1.38889 6.94444H23.6111C24.0046 6.94444 24.3345 7.07755 24.6007 7.34375C24.8669 7.60995 25 7.93981 25 8.33333C25 8.72685 24.8669 9.05671 24.6007 9.32292C24.3345 9.58912 24.0046 9.72222 23.6111 9.72222H1.38889ZM1.38889 2.77778C0.99537 2.77778 0.665509 2.64468 0.399306 2.37847C0.133102 2.11227 0 1.78241 0 1.38889C0 0.99537 0.133102 0.665509 0.399306 0.399306C0.665509 0.133102 0.99537 0 1.38889 0H23.6111C24.0046 0 24.3345 0.133102 24.6007 0.399306C24.8669 0.665509 25 0.99537 25 1.38889C25 1.78241 24.8669 2.11227 24.6007 2.37847C24.3345 2.64468 24.0046 2.77778 23.6111 2.77778H1.38889Z" fill="white"/>
</svg>
