<svg width="12" height="12" viewBox="0 0 12 12" fill="none" xmlns="http://www.w3.org/2000/svg">
<path d="M5.30769 6.69231H0.692308C0.496154 6.69231 0.331769 6.62592 0.199154 6.49315C0.0663847 6.36038 0 6.19592 0 5.99977C0 5.80346 0.0663847 5.63908 0.199154 5.50662C0.331769 5.374 0.496154 5.30769 0.692308 5.30769H5.30769V0.692308C5.30769 0.496154 5.37408 0.331769 5.50685 0.199154C5.63962 0.0663847 5.80408 0 6.00023 0C6.19654 0 6.36092 0.0663847 6.49338 0.199154C6.626 0.331769 6.69231 0.496154 6.69231 0.692308V5.30769H11.3077C11.5038 5.30769 11.6682 5.37408 11.8008 5.50685C11.9336 5.63962 12 5.80408 12 6.00023C12 6.19654 11.9336 6.36092 11.8008 6.49338C11.6682 6.626 11.5038 6.69231 11.3077 6.69231H6.69231V11.3077C6.69231 11.5038 6.62592 11.6682 6.49315 11.8008C6.36038 11.9336 6.19592 12 5.99977 12C5.80346 12 5.63908 11.9336 5.50662 11.8008C5.374 11.6682 5.30769 11.5038 5.30769 11.3077V6.69231Z" fill="white"/>
</svg>
