<svg width="12" height="12" viewBox="0 0 12 12" fill="none" xmlns="http://www.w3.org/2000/svg">
<path d="M5.22727 6.59091H0.681818C0.488636 6.59091 0.326743 6.52553 0.196137 6.39477C0.0653789 6.26402 0 6.10205 0 5.90886C0 5.71553 0.0653789 5.55364 0.196137 5.42318C0.326743 5.29258 0.488636 5.22727 0.681818 5.22727H5.22727V0.681818C5.22727 0.488636 5.29265 0.326743 5.42341 0.196137C5.55417 0.0653789 5.71614 0 5.90932 0C6.10265 0 6.26455 0.0653789 6.395 0.196137C6.52561 0.326743 6.59091 0.488636 6.59091 0.681818V5.22727H11.1364C11.3295 5.22727 11.4914 5.29265 11.622 5.42341C11.7528 5.55417 11.8182 5.71614 11.8182 5.90932C11.8182 6.10265 11.7528 6.26455 11.622 6.395C11.4914 6.52561 11.3295 6.59091 11.1364 6.59091H6.59091V11.1364C6.59091 11.3295 6.52553 11.4914 6.39477 11.622C6.26402 11.7528 6.10205 11.8182 5.90886 11.8182C5.71553 11.8182 5.55364 11.7528 5.42318 11.622C5.29258 11.4914 5.22727 11.3295 5.22727 11.1364V6.59091Z" fill="#1F3D7B"/>
</svg>
