<svg width="32" height="19" viewBox="0 0 32 19" fill="none" xmlns="http://www.w3.org/2000/svg">
<path d="M15.9767 5.30543L3.9486 17.5581C3.53959 17.9743 3.02267 18.1902 2.39782 18.2059C1.77347 18.2211 1.24322 18.0148 0.807047 17.5871C0.371371 17.1589 0.150697 16.6373 0.145027 16.0223C0.139356 15.4073 0.350374 14.8817 0.77808 14.4455L14.0502 0.926426C14.3268 0.645165 14.6193 0.445732 14.9277 0.328125C15.2362 0.210518 15.5699 0.150059 15.9291 0.146747C16.2883 0.143436 16.6231 0.197729 16.9337 0.309629C17.2442 0.421529 17.5404 0.615534 17.8221 0.891646L31.3412 14.1637C31.7574 14.5727 31.9733 15.0897 31.989 15.7145C32.0042 16.3389 31.7979 16.8691 31.3702 17.3053C30.942 17.741 30.4204 17.9616 29.8054 17.9673C29.1904 17.973 28.6648 17.762 28.2286 17.3343L15.9767 5.30543Z" fill="black"/>
</svg>
