<svg width="10" height="17" viewBox="0 0 10 17" fill="none" xmlns="http://www.w3.org/2000/svg">
<path d="M6.57656 8.18527L0.358156 1.94484C0.14697 1.73264 0.0391177 1.4662 0.0345972 1.14553C0.0303298 0.825112 0.139149 0.554222 0.361056 0.332857C0.583216 0.11175 0.852079 0.00147988 1.16764 0.00204753C1.48321 0.00261518 1.75167 0.113852 1.97304 0.335757L8.83415 7.2216C8.97689 7.36511 9.07756 7.51632 9.13616 7.67523C9.19475 7.83414 9.22388 8.00574 9.22355 8.19003C9.22322 8.37432 9.19347 8.54581 9.1343 8.70451C9.07514 8.86321 8.97393 9.01405 8.83067 9.15705L1.94483 16.0182C1.73263 16.2293 1.46619 16.3372 1.14552 16.3417C0.8251 16.346 0.554209 16.2372 0.332845 16.0153C0.111737 15.7931 0.00146709 15.5242 0.00203474 15.2087C0.00260239 14.8931 0.113839 14.6246 0.335745 14.4033L6.57656 8.18527Z" fill="white"/>
</svg>
