<svg width="34" height="34" viewBox="0 0 34 34" fill="none" xmlns="http://www.w3.org/2000/svg">
<path d="M17.9103 33.3091C13.3533 33.2694 9.08625 31.458 5.89216 28.2094C2.69807 24.9608 0.961017 20.6616 1.00066 16.1071C1.03783 11.7682 2.76249 7.70184 5.85747 4.66138C8.95244 1.62092 13.0411 -0.0269248 17.3874 0.000332808C21.5207 0.0350243 25.3937 1.68039 28.2929 4.62916C31.1921 7.57794 32.7681 11.4782 32.731 15.6115C32.6963 19.5514 31.1302 23.2411 28.3227 26.0016C25.5151 28.762 21.8056 30.2562 17.8582 30.2315C10.1096 30.1646 3.86023 23.8061 3.92714 16.0575C3.95687 12.4793 5.37922 9.12914 7.93152 6.62144C10.4838 4.11375 13.8588 2.74344 17.437 2.78061C24.4769 2.84255 30.1539 8.61868 30.0944 15.6586C30.0374 22.3342 24.5859 27.7262 17.9227 27.7262C17.888 27.7262 17.8508 27.7262 17.8161 27.7262L17.831 25.9917C17.8607 25.9917 17.8929 25.9917 17.9227 25.9917C23.6368 25.9917 28.3103 21.3678 28.3598 15.6437C28.4119 9.56031 23.5055 4.56722 17.4221 4.51518C14.3098 4.48792 11.3685 5.67486 9.1482 7.85795C6.92795 10.041 5.68897 12.9576 5.66171 16.0724C5.60224 22.8645 11.081 28.4374 17.8731 28.4969C21.3398 28.5217 24.628 27.2009 27.106 24.7651C29.5839 22.3292 30.9666 19.0732 30.9964 15.5966C31.0286 11.9268 29.6285 8.46257 27.0539 5.84337C24.4793 3.22416 21.0424 1.76712 17.3701 1.73491C13.4871 1.70517 9.83707 3.17956 7.07167 5.89788C4.30626 8.6162 2.76497 12.2464 2.73276 16.1219C2.69807 20.2155 4.25918 24.0762 7.12618 26.9952C9.99566 29.9143 13.8291 31.5398 17.9202 31.577L17.9053 33.3116L17.9103 33.3091Z" fill="#D62C27"/>
<path d="M18.0148 13.4512H16.2803V27.7218H18.0148V13.4512Z" fill="#D62C27"/>
</svg>
