<svg width="23" height="22" viewBox="0 0 23 22" fill="none" xmlns="http://www.w3.org/2000/svg">
<path d="M7.70653 8.99237C6.65773 7.96303 6.13333 6.7217 6.13333 5.26838C6.13333 3.81531 6.65773 2.57398 7.70653 1.54439C8.75533 0.514795 10.0198 0 11.5 0C12.9802 0 14.2447 0.514795 15.2935 1.54439C16.3423 2.57398 16.8667 3.81531 16.8667 5.26838C16.8667 6.7217 16.3423 7.96303 15.2935 8.99237C14.2447 10.022 12.9802 10.5368 11.5 10.5368C10.0198 10.5368 8.75533 10.022 7.70653 8.99237ZM0 19.7131V18.6534C0 17.9164 0.203934 17.2337 0.6118 16.6056C1.01967 15.9774 1.56477 15.4944 2.2471 15.1568C3.76254 14.4275 5.29141 13.8804 6.83368 13.5157C8.37596 13.1509 9.9314 12.9685 11.5 12.9685C13.0686 12.9685 14.624 13.1509 16.1663 13.5157C17.7086 13.8804 19.2375 14.4275 20.7529 15.1568C21.4352 15.4944 21.9803 15.9774 22.3882 16.6056C22.7961 17.2337 23 17.9164 23 18.6534V19.7131C23 20.3479 22.7735 20.8877 22.3204 21.3328C21.8673 21.7776 21.3173 22 20.6705 22H2.32952C1.68271 22 1.13275 21.7776 0.67965 21.3328C0.22655 20.8877 0 20.3479 0 19.7131ZM2.3 19.7421H20.7V18.6534C20.7 18.3486 20.61 18.0664 20.4301 17.8067C20.2502 17.5473 20.006 17.3356 19.6976 17.1715C18.3764 16.5328 17.0302 16.0489 15.6592 15.7197C14.2881 15.3908 12.9017 15.2264 11.5 15.2264C10.0983 15.2264 8.71189 15.3908 7.34083 15.7197C5.96978 16.0489 4.62364 16.5328 3.30242 17.1715C2.99396 17.3356 2.74978 17.5473 2.56987 17.8067C2.38996 18.0664 2.3 18.3486 2.3 18.6534V19.7421ZM13.6658 7.39455C14.2664 6.80499 14.5667 6.09627 14.5667 5.26838C14.5667 4.44049 14.2664 3.73177 13.6658 3.14221C13.0653 2.55266 12.3433 2.25788 11.5 2.25788C10.6567 2.25788 9.93472 2.55266 9.33417 3.14221C8.73361 3.73177 8.43333 4.44049 8.43333 5.26838C8.43333 6.09627 8.73361 6.80499 9.33417 7.39455C9.93472 7.9841 10.6567 8.27888 11.5 8.27888C12.3433 8.27888 13.0653 7.9841 13.6658 7.39455Z" fill="#D52B1E"/>
</svg>
