<svg width="18" height="23" viewBox="0 0 18 23" fill="none" xmlns="http://www.w3.org/2000/svg">
<path d="M0.9 19.6352C0.645 19.6352 0.4313 19.5491 0.2589 19.3769C0.0863002 19.2046 0 18.991 0 18.7361C0 18.4814 0.0863002 18.268 0.2589 18.0958C0.4313 17.9239 0.645 17.8379 0.9 17.8379H2.1693V8.89573C2.1693 7.28408 2.6674 5.85908 3.6636 4.62073C4.6596 3.38238 5.9384 2.59034 7.5 2.2446V1.498C7.5 1.08196 7.6457 0.728229 7.9371 0.436817C8.2285 0.145606 8.5823 0 8.9985 0C9.4149 0 9.7692 0.145606 10.0614 0.436817C10.3538 0.728229 10.5 1.08196 10.5 1.498V2.2446C12.0616 2.59034 13.3404 3.38238 14.3364 4.62073C15.3326 5.85908 15.8307 7.28408 15.8307 8.89573V17.8379H17.1C17.355 17.8379 17.5687 17.924 17.7411 18.0961C17.9137 18.2685 18 18.4821 18 18.737C18 18.9917 17.9137 19.2051 17.7411 19.3772C17.5687 19.5492 17.355 19.6352 17.1 19.6352H0.9ZM8.9979 23C8.4009 23 7.8905 22.7879 7.4667 22.3637C7.0427 21.9394 6.8307 21.4294 6.8307 20.8336H11.1693C11.1693 21.4314 10.9567 21.9419 10.5315 22.3651C10.1063 22.7884 9.5951 23 8.9979 23ZM3.9693 17.8379H14.0307V8.89573C14.0307 7.50838 13.5396 6.32426 12.5574 5.34337C11.575 4.36228 10.3892 3.87173 9 3.87173C7.6108 3.87173 6.425 4.36228 5.4426 5.34337C4.4604 6.32426 3.9693 7.50838 3.9693 8.89573V17.8379Z" fill="#D52B1E"/>
</svg>
