<svg width="54" height="53" viewBox="0 0 54 53" fill="none" xmlns="http://www.w3.org/2000/svg">
<path d="M13.7073 20.1007C16.5442 18.312 16.9253 13.8187 14.5585 10.0645C12.1918 6.31028 7.97342 4.71687 5.13657 6.50552C2.29972 8.29416 1.91863 12.7875 4.28538 16.5417C6.65214 20.2959 10.8705 21.8893 13.7073 20.1007Z" fill="#084792"/>
<path d="M32.8592 9.24154C33.3154 4.827 30.9809 0.968847 27.6451 0.624102C24.3093 0.279357 21.2353 3.57857 20.7791 7.99311C20.3229 12.4076 22.6573 16.2658 25.9932 16.6105C29.329 16.9553 32.403 13.6561 32.8592 9.24154Z" fill="#084792"/>
<path d="M49.9823 16.3429C52.2012 12.4994 51.6456 8.02428 48.7413 6.34739C45.837 4.67049 41.6838 6.42684 39.4649 10.2703C37.246 14.1138 37.8017 18.5889 40.706 20.2658C43.6103 21.9427 47.7634 20.1863 49.9823 16.3429Z" fill="#084792"/>
<path d="M27.4738 49.849C27.4738 49.849 29.1484 47.4143 31.4352 46.6474C33.722 45.8804 38.4432 42.5309 39.0483 40.7085C39.6534 38.886 40.5681 31.5679 35.6991 31.2654C30.8301 30.9628 29.6058 31.7227 27.4738 35.5295C27.4738 35.5295 24.4272 31.6031 22.5978 31.202C20.7684 30.8009 15.8923 29.8932 14.3725 34.7696C12.8527 39.6459 16.0471 42.9954 18.4886 44.5223C20.9302 46.0492 25.6515 48.4839 25.6515 49.856C25.6515 49.856 22.6541 50.9256 20.7261 51.8333C18.7982 52.741 12.7049 54.268 8.441 48.9413C4.17708 43.6146 5.23954 30.5054 13.1623 25.4813C21.085 20.4572 31.8714 18.2828 41.4969 26.2412C49.4196 32.7923 48.9342 42.6295 46.8303 46.957C45.0713 50.5738 40.8918 53.508 35.5584 52.7551C30.9708 52.1078 30.0772 49.849 27.4879 49.849H27.4738Z" fill="#084792"/>
</svg>
