<svg width="29" height="28" viewBox="0 0 29 28" fill="none" xmlns="http://www.w3.org/2000/svg">
<path d="M28.4096 13.676C28.4096 13.9595 28.1898 13.9595 27.4273 14.1787C27.1041 14.2689 26.949 14.7845 26.6905 15.5707C26.1477 17.2464 24.4028 19.9532 20.7708 19.9532C17.1388 19.9532 15.2388 16.8726 15.1095 16.7179C14.9157 16.4601 14.6313 16.241 14.3728 16.241C14.2177 16.241 14.0885 16.3054 13.998 16.3699C12.6925 17.2593 11.2578 18.2776 11.2578 20.5848C11.2578 22.1058 12.5245 23.8588 14.6959 23.8588C16.5442 23.8588 17.7463 22.1187 18.134 20.9071C18.2633 20.4946 18.2245 20.3399 18.4572 20.3399C18.7415 20.3399 18.8449 20.9715 19.2198 20.9715C19.5429 20.9715 19.4395 20.8168 19.8531 20.8168C20.2408 20.8168 20.3313 21.3195 20.6545 21.3195C21.1068 21.3195 21.7014 20.9328 21.9858 20.9328C22.0762 20.9328 22.2443 20.9328 22.2443 21.0231C22.2443 21.1778 21.9599 21.3453 21.7014 21.5644C21.1585 22.0414 20.7449 22.3249 20.3313 23.021C18.8708 25.4958 17.1776 25.9469 16.3245 26.1918C16.0014 26.2821 15.6912 26.4496 15.5619 26.7332C15.0837 27.8159 14.7993 27.9448 14.6701 27.9448C14.515 27.9448 14.4504 27.7515 14.4116 27.339C14.3728 26.9008 14.1272 26.3852 13.2612 26.2305C11.064 25.818 8.3626 23.601 8.3626 20.1079C8.3626 16.9628 10.7538 15.7254 11.9558 14.5267C12.1109 14.372 12.2402 14.1787 12.2402 13.8951V13.8049C12.2402 13.6502 12.2014 13.4568 12.0204 13.199C10.8055 11.6781 9.88777 10.6598 8.23335 10.6598C6.42382 10.6598 4.83402 12.155 4.83402 14.3076C4.83402 16.6277 5.98436 17.414 7.12178 17.7104C7.49661 17.8007 7.62586 17.8393 7.62586 17.9682C7.62586 18.226 7.36736 18.1616 7.36736 18.5354C7.36736 18.8189 7.58709 18.7932 7.58709 19.2314C7.58709 19.5537 7.30273 19.6439 7.30273 20.1208C7.30273 20.5075 7.49661 20.6235 7.49661 20.8555C7.49661 21.1391 7.65171 21.1133 7.65171 21.7062C7.65171 21.8609 7.71634 21.9898 7.58709 21.9898C7.45784 21.9898 7.30273 21.7707 7.10886 21.4871C6.65647 20.8168 6.19117 20.4044 5.82926 20.1595C3.06327 18.1616 2.95987 17.2722 2.26191 15.9059C2.10681 15.5836 2.04218 15.0552 1.71905 14.8876C0.69796 14.3849 0 14.2173 0 13.3924C0 13.0057 0.452382 13.3924 1.15034 13.3924C1.5381 13.3924 1.97755 13.4568 2.19728 12.6577C2.67551 10.9691 4.67892 8.27518 8.18165 8.27518C11.9041 8.27518 13.7524 11.3558 13.8817 11.5105C14.1402 11.8585 14.3599 11.9874 14.6184 11.9874C14.7735 11.9874 14.9027 11.9874 15.1871 11.7296C17.5395 9.62859 17.7334 8.71343 17.7334 7.51469C17.7334 5.9937 16.5184 4.21493 14.3599 4.21493C12.2014 4.21493 11.1803 5.92926 10.8959 7.19244C10.8055 7.60491 10.7408 7.82404 10.547 7.82404C10.2626 7.82404 10.2626 7.43735 9.93947 7.43735C9.43539 7.43735 9.37076 7.65647 9.11226 7.65647C8.76328 7.65647 8.76328 7.02488 8.24627 7.02488C8.11702 7.02488 7.83267 7.17955 7.63879 7.17955C7.16056 7.17955 7.1347 7.26978 6.90205 7.26978C6.64355 7.26978 6.39797 7.14089 6.39797 6.94754C6.39797 6.75419 6.55307 6.6253 7.07008 6.38039C7.74219 6.03237 8.34967 5.77458 8.65988 5.07854C9.64219 2.88729 11.8136 2.19125 12.6408 1.869C12.964 1.74011 13.1191 1.61121 13.2742 1.32764C13.9463 0.116007 14.2306 0 14.4245 0C14.6184 0 14.5796 0.322242 14.683 0.696043C14.7735 1.13429 14.7735 1.4952 15.5102 1.67566C17.5783 2.21703 20.6286 4.1247 20.6286 7.60491C20.6286 11.0851 17.1905 13.2893 17.0354 13.4182C16.6476 13.7017 16.5313 13.9209 16.5313 14.1529C16.5313 14.3075 16.6218 14.5009 16.7252 14.6942C17.5524 16.3441 18.9871 17.4269 20.6415 17.4269C22.6191 17.4269 24.1443 15.5836 24.1443 13.6888C24.1443 11.7941 22.8776 10.6469 21.7531 10.2989C21.3395 10.17 21.1456 10.17 21.1456 9.95084C21.1456 9.69304 21.43 9.79616 21.43 9.40947C21.43 9.1259 21.3007 9.19035 21.3007 8.73921C21.3007 8.41696 21.6885 8.32674 21.6885 7.84982C21.6885 7.46313 21.4946 7.34712 21.4946 7.11511C21.4946 6.83153 21.4041 6.85731 21.4041 6.2515C21.4041 6.09682 21.3395 5.96792 21.4687 5.96792C21.6238 5.96792 21.7919 6.18705 21.9728 6.47062C22.4123 7.14089 22.7742 7.64358 23.1232 7.86271C25.6436 9.44814 26.1735 10.4664 26.7551 11.8972C26.8844 12.2194 27.0137 12.7479 27.3885 12.9799C27.7116 13.1733 28.4096 13.3924 28.4096 13.6502" fill="#231815"/>
</svg>
