<svg width="123" height="32" viewBox="0 0 123 32" fill="none" xmlns="http://www.w3.org/2000/svg">
<g clip-path="url(#clip0_75_106)">
<path d="M61.3891 20.1238H56.8019C59.3663 22.0734 61.1216 24.7208 58.9487 27.7668C54.9879 33.3202 40.5759 33.3396 36.2715 28.2321C33.7136 25.1969 35.2492 22.2521 38.0137 20.1238H33.2068V16.6621H61.0629L61.3913 16.9874V20.1238H61.3891ZM46.7052 21.0523C44.6128 21.1341 39.8038 22.0389 40.2366 24.9341C40.7238 28.1912 47.1859 28.469 49.6742 28.1028C51.1446 27.8874 53.9634 27.0645 54.4963 25.5222C55.8123 21.705 49.1283 20.9575 46.7074 21.0523H46.7052Z" fill="#2E008B"/>
<path d="M117.756 8.22205V2.5954H123V17.3083H117.756V11.6816H113.386C111.514 17.8576 102.167 18.9217 97.5518 15.1391C92.5013 11.0009 94.9983 4.68493 100.725 2.92929C105.863 1.35245 111.542 3.17056 113.715 8.2199H117.756V8.22205ZM103.496 5.89341C98.7329 6.68614 98.9178 13.2908 103.44 13.853C110.615 14.7427 109.937 4.8228 103.496 5.89341Z" fill="#2E008B"/>
<path d="M50.0286 0V2.81333H60.6256L60.954 3.13861V6.27506H57.4587C61.6196 12.003 54.444 15.4432 49.4936 15.805C45.0456 16.1303 35.4731 15.008 36.2626 8.7588C36.3888 7.75927 37.087 7.17119 37.3589 6.27721H34.0811V2.81333H45.0042V0H50.0286ZM45.8286 6.33537C39.6905 7.03117 39.7819 11.8974 45.796 12.5243C47.9145 12.744 53.189 12.4618 53.7023 9.79064C54.3353 6.50555 47.9797 6.09196 45.8286 6.33537Z" fill="#2E008B"/>
<path d="M103.992 18.8254V21.4212H117.756V18.8254H122.78V30.0766H99.7312C99.6768 30.0766 98.9656 29.3722 98.9656 29.3183V18.8232H103.99L103.992 18.8254ZM117.756 24.8829H103.992V26.6148H117.756V24.8829Z" fill="#2E008B"/>
<path d="M20.5326 6.27521H13.3223C13.3506 11.1134 15.7301 14.6958 20.0911 16.7703L17.5898 19.254C14.747 18.1231 11.8345 15.8418 10.6992 12.9832C9.03088 15.1116 7.13857 16.9017 4.73077 18.2135C4.33491 18.429 2.97767 19.1851 2.67316 19.2282C1.83141 19.3488 0.611194 17.3088 0 16.7703C4.51761 14.6247 7.51485 11.4452 7.86069 6.27521H0.65252V2.81348H20.2064L20.5348 3.13875V6.27521H20.5326Z" fill="#2E008B"/>
<path d="M80.2881 3.02832C82.3545 3.46561 81.28 7.86656 80.945 9.30338C79.3616 16.1041 74.8461 23.3356 68.9647 27.2324L65.104 24.99C71.0528 20.4253 75.3507 13.9564 76.4644 6.4879H65.7587V3.02832H80.2881Z" fill="#2E008B"/>
<path d="M90.2283 2.37988H85.4214V30.0759H90.2283V2.37988Z" fill="#2E008B"/>
<path d="M8.73507 20.7725V26.8321H27.743V30.2938H4.47412C4.24791 30.2938 3.7085 29.7618 3.7085 29.5356V20.7725H8.7329H8.73507Z" fill="#2E008B"/>
<path d="M27.7429 2.37988H22.7185V21.8535H27.7429V2.37988Z" fill="#2E008B"/>
</g>
<defs>
<clipPath id="clip0_75_106">
<rect width="123" height="32" fill="white"/>
</clipPath>
</defs>
</svg>
