<svg width="6" height="10" viewBox="0 0 6 10" fill="none" xmlns="http://www.w3.org/2000/svg">
<path d="M3.96998 4.66826L0.222929 0.851302C0.124105 0.750634 0.0765728 0.632741 0.0803321 0.497622C0.0841757 0.362421 0.136431 0.245409 0.237099 0.146586C0.33785 0.0477629 0.455796 -0.00102549 0.590938 0.000223409C0.72608 0.00147231 0.843104 0.0524321 0.942012 0.1531L4.75791 4.03245C4.84786 4.12408 4.9142 4.22642 4.95692 4.33945C4.99965 4.45249 5.02049 4.56533 5.01945 4.67796C5.01841 4.79059 4.99548 4.90302 4.95068 5.01525C4.90587 5.12748 4.83765 5.22857 4.74602 5.31852L0.859011 9.13447C0.75826 9.23329 0.639029 9.28077 0.501317 9.2769C0.363605 9.27304 0.245337 9.22077 0.146513 9.1201C0.0476897 9.01943 -0.00109723 8.90149 0.00015244 8.76626C0.00140134 8.63112 0.0523593 8.51414 0.153026 8.41531L3.96998 4.66826Z" fill="white"/>
</svg>
