<svg width="13" height="25" viewBox="0 0 13 25" fill="none" xmlns="http://www.w3.org/2000/svg">
<path d="M2.73896 12.5054L12.6095 22.6975C12.8698 22.9663 12.9967 23.2828 12.9902 23.647C12.9834 24.0114 12.8499 24.328 12.5895 24.5968C12.329 24.8656 12.0224 25 11.6697 25C11.317 25 11.0103 24.8656 10.7498 24.5968L0.69809 14.2383C0.461135 13.9936 0.285547 13.7195 0.171328 13.416C0.0571095 13.1124 0 12.8089 0 12.5054C0 12.2018 0.0571095 11.8983 0.171328 11.5948C0.285547 11.2912 0.461135 11.0171 0.69809 10.7725L10.7498 0.392984C11.0103 0.124181 11.3203 -0.0067249 11.6798 0.000265796C12.0393 0.00725649 12.3492 0.145153 12.6095 0.413956C12.8698 0.68276 13 0.999371 13 1.36379C13 1.72798 12.8698 2.04448 12.6095 2.31328L2.73896 12.5054Z" fill="white"/>
</svg>
