<svg width="20" height="23" viewBox="0 0 20 23" fill="none" xmlns="http://www.w3.org/2000/svg">
<path d="M8.76471 16.1603L13.0906 11.736C13.2655 11.5571 13.4763 11.4657 13.7229 11.4616C13.9694 11.4578 14.1839 11.5493 14.3665 11.736C14.549 11.9227 14.6403 12.1402 14.6403 12.3884C14.6403 12.6367 14.549 12.8542 14.3665 13.0409L9.50912 18.009C9.29637 18.2264 9.04824 18.3351 8.76471 18.3351C8.48118 18.3351 8.23304 18.2264 8.0203 18.009L5.63353 15.5677C5.45863 15.3888 5.36922 15.1732 5.36529 14.9209C5.36157 14.6689 5.45098 14.4495 5.63353 14.2628C5.81608 14.0761 6.02873 13.9827 6.27147 13.9827C6.51422 13.9827 6.72686 14.0761 6.90941 14.2628L8.76471 16.1603ZM2.12676 23C1.53245 23 1.02941 22.7894 0.617647 22.3683C0.205882 21.9472 0 21.4327 0 20.8249V4.72026C0 4.11243 0.205882 3.59795 0.617647 3.17682C1.02941 2.75569 1.53245 2.54513 2.12676 2.54513H3.75559V0.925282C3.75559 0.661575 3.84196 0.441384 4.01471 0.26471C4.18745 0.0882363 4.40275 0 4.66059 0C4.91863 0 5.13392 0.0882363 5.30647 0.26471C5.47922 0.441384 5.56559 0.661575 5.56559 0.925282V2.54513H14.4797V0.902421C14.4797 0.646334 14.5641 0.431858 14.7329 0.258994C14.902 0.0863312 15.1117 0 15.3621 0C15.6125 0 15.8221 0.0863312 15.9909 0.258994C16.1599 0.431858 16.2444 0.646334 16.2444 0.902421V2.54513H17.8732C18.4676 2.54513 18.9706 2.75569 19.3824 3.17682C19.7941 3.59795 20 4.11243 20 4.72026V20.8249C20 21.4327 19.7941 21.9472 19.3824 22.3683C18.9706 22.7894 18.4676 23 17.8732 23H2.12676ZM2.12676 21.1952H17.8732C17.9638 21.1952 18.0468 21.1566 18.1221 21.0793C18.1975 21.0023 18.2353 20.9175 18.2353 20.8249V9.53317H1.76471V20.8249C1.76471 20.9175 1.80245 21.0023 1.87794 21.0793C1.95324 21.1566 2.03618 21.1952 2.12676 21.1952ZM1.76471 7.72833H18.2353V4.72026C18.2353 4.62761 18.1975 4.54279 18.1221 4.46578C18.0468 4.38857 17.9638 4.34997 17.8732 4.34997H2.12676C2.03618 4.34997 1.95324 4.38857 1.87794 4.46578C1.80245 4.54279 1.76471 4.62761 1.76471 4.72026V7.72833Z" fill="#D52B1E"/>
</svg>
