<svg width="21" height="20" viewBox="0 0 21 20" fill="none" xmlns="http://www.w3.org/2000/svg">
<path d="M11.3062 10.3795V6.0671C11.3062 5.83452 11.2293 5.63982 11.0753 5.48301C10.9216 5.32601 10.7307 5.24751 10.5026 5.24751C10.2746 5.24751 10.0837 5.32601 9.92991 5.48301C9.77598 5.63982 9.69901 5.83452 9.69901 6.0671V10.6316C9.69901 10.7633 9.7224 10.8887 9.76919 11.0078C9.8158 11.1267 9.88929 11.2374 9.98965 11.3397L13.1237 14.5361C13.2719 14.6875 13.4584 14.7649 13.683 14.7683C13.9077 14.7718 14.0976 14.6944 14.2528 14.5361C14.408 14.3778 14.4856 14.1859 14.4856 13.9602C14.4856 13.7347 14.408 13.5429 14.2528 13.3846L11.3062 10.3795ZM6.95041 19.2687C5.84589 18.7811 4.8829 18.1184 4.06143 17.2806C3.23997 16.4428 2.59021 15.4607 2.11215 14.3342C1.63409 13.2079 1.39506 12.0003 1.39506 10.7114C1.39506 9.42247 1.63409 8.21486 2.11215 7.08857C2.59021 5.9621 3.23997 4.97997 4.06143 4.14217C4.8829 3.30437 5.84589 2.6417 6.95041 2.15414C8.05474 1.66658 9.23881 1.4228 10.5026 1.4228C11.7664 1.4228 12.9505 1.66658 14.0548 2.15414C15.1593 2.6417 16.1223 3.30437 16.9438 4.14217C17.7653 4.97997 18.415 5.9621 18.8931 7.08857C19.3711 8.21486 19.6102 9.42247 19.6102 10.7114C19.6102 12.0003 19.3711 13.2079 18.8931 14.3342C18.415 15.4607 17.7653 16.4428 16.9438 17.2806C16.1223 18.1184 15.1593 18.7811 14.0548 19.2687C12.9505 19.7562 11.7664 20 10.5026 20C9.23881 20 8.05474 19.7562 6.95041 19.2687ZM0.233046 4.46153C0.0776822 4.30326 0 4.1113 0 3.88564C0 3.66017 0.0776822 3.46829 0.233046 3.31002L3.2455 0.237679C3.3939 0.0863297 3.58034 0.00892468 3.80482 0.00546422C4.02947 0.00182163 4.21939 0.0792267 4.37457 0.237679C4.52976 0.39595 4.60735 0.587823 4.60735 0.8133C4.60735 1.03896 4.52976 1.23092 4.37457 1.38919L1.36212 4.46153C1.21372 4.61288 1.02728 4.69029 0.802804 4.69375C0.578151 4.69721 0.388232 4.6198 0.233046 4.46153ZM20.7722 4.46153C20.617 4.6198 20.4289 4.69894 20.2078 4.69894C19.9865 4.69894 19.7983 4.6198 19.6431 4.46153L16.6307 1.38919C16.4823 1.23784 16.4064 1.0477 16.403 0.818764C16.3996 0.589645 16.4755 0.39595 16.6307 0.237679C16.7859 0.0792267 16.9741 0 17.1953 0C17.4164 0 17.6045 0.0792267 17.7597 0.237679L20.7722 3.31002C20.9206 3.46137 20.9965 3.65151 20.9999 3.88045C21.0035 4.10957 20.9276 4.30326 20.7722 4.46153ZM10.5026 18.3608C12.5852 18.3608 14.3559 17.6169 15.8147 16.1291C17.2736 14.6413 18.003 12.8354 18.003 10.7114C18.003 8.58741 17.2736 6.7815 15.8147 5.29368C14.3559 3.80587 12.5852 3.06196 10.5026 3.06196C8.42002 3.06196 6.64932 3.80587 5.1905 5.29368C3.73169 6.7815 3.00228 8.58741 3.00228 10.7114C3.00228 12.8354 3.73169 14.6413 5.1905 16.1291C6.64932 17.6169 8.42002 18.3608 10.5026 18.3608Z" fill="#D52B1E"/>
</svg>
