<svg width="181" height="84" viewBox="0 0 181 84" fill="none" xmlns="http://www.w3.org/2000/svg">
<path d="M26.56 26.6844H22.3644V19.8933H19.4133V26.4H15.2178V10.0089H19.4133V15.4489H22.3644V9.90222H26.56V26.6844ZM8.07111 20.8889C6.34074 24.1837 3.95852 25.9496 0.924444 26.1867V21.8133C2.48889 21.5289 3.72148 20.3556 4.62222 18.2933C5.52296 16.2074 5.97333 13.4933 5.97333 10.1511L10.24 10.2933C10.24 12.5926 10.0267 14.6904 9.6 16.5867L15.36 23.0578L12.4089 25.8667L8.07111 20.8889ZM26.56 27.7867V37.4222H22.1511V31.8044H2.91556V27.7867H26.56ZM53.2585 24.7644V37.2089H48.7785V9.90222H53.2585V20.2133H56.494V24.7644H53.2585ZM40.5296 31.5556C41.7622 31.5556 42.9948 31.437 44.2274 31.2C45.46 30.963 46.4674 30.6548 47.2496 30.2756V34.5422C46.5148 34.9452 45.4837 35.2652 44.1562 35.5022C42.8525 35.7156 41.537 35.8222 40.2096 35.8222H30.1474V10.6489H45.2229V14.9156H34.6985V31.5556H40.5296ZM63.3881 18.08V19.8933H82.0903V23.2H59.0147V15.0933H77.3969V13.2444H58.9436V10.0089H81.8058V18.08H63.3881ZM57.3081 28.5689V24.8711H83.4769V28.5689H57.3081ZM82.2325 33.3333V37.1022H58.9081V30.1333H63.4947V33.3333H82.2325ZM117.491 37.2089H113.082V30.3111H109.669L109.953 25.9022H113.082V20.4267H109.953L109.669 16.0178H113.082V9.90222H117.491V37.2089ZM101.171 10.3289C103.613 10.3289 105.533 11.4074 106.931 13.5644C108.33 15.6978 109.029 18.9215 109.029 23.2356C109.029 27.5496 108.33 30.7852 106.931 32.9422C105.533 35.0756 103.613 36.1422 101.171 36.1422C98.7059 36.1422 96.7622 35.0756 95.34 32.9422C93.9415 30.7852 93.2422 27.5496 93.2422 23.2356C93.2422 18.9215 93.9415 15.6978 95.34 13.5644C96.7622 11.4074 98.7059 10.3289 101.171 10.3289ZM101.171 31.84C102.238 31.84 103.067 31.1644 103.66 29.8133C104.276 28.4622 104.584 26.2696 104.584 23.2356C104.584 20.2252 104.276 18.0444 103.66 16.6933C103.044 15.3185 102.214 14.6311 101.171 14.6311C98.8244 14.6311 97.6511 17.4993 97.6511 23.2356C97.6511 28.9719 98.8244 31.84 101.171 31.84ZM120.083 15.2356V11.7511H124.918V9.47556H129.363V11.7511H133.985V15.2356H120.083ZM135.301 25.7956V10.0089H139.39V15.6978H142.092V9.90222H146.216V26.7556H142.092V19.8933H139.39V25.7956H135.301ZM133.558 21.2089C133.558 22.7496 132.954 23.9822 131.745 24.9067C130.536 25.8311 129.031 26.2933 127.23 26.2933C125.404 26.2933 123.887 25.8311 122.678 24.9067C121.493 23.9822 120.901 22.7496 120.901 21.2089C120.901 19.6681 121.493 18.4356 122.678 17.5111C123.887 16.5867 125.404 16.1244 127.23 16.1244C129.031 16.1244 130.536 16.5867 131.745 17.5111C132.954 18.4356 133.558 19.6681 133.558 21.2089ZM124.847 21.2089C124.847 21.7304 125.073 22.1689 125.523 22.5244C125.973 22.8563 126.542 23.0222 127.23 23.0222C127.917 23.0222 128.486 22.8563 128.936 22.5244C129.387 22.1689 129.612 21.7304 129.612 21.2089C129.612 20.6874 129.387 20.2607 128.936 19.9289C128.486 19.597 127.917 19.4311 127.23 19.4311C126.542 19.4311 125.973 19.597 125.523 19.9289C125.073 20.2607 124.847 20.6874 124.847 21.2089ZM134.376 26.9689C138.05 26.9689 140.978 27.3837 143.158 28.2133C145.339 29.043 146.43 30.3704 146.43 32.1956C146.43 34.0444 145.339 35.3719 143.158 36.1778C140.978 37.0074 138.05 37.4222 134.376 37.4222C130.702 37.4222 127.775 37.0074 125.594 36.1778C123.413 35.3719 122.323 34.0444 122.323 32.1956C122.323 30.3704 123.413 29.043 125.594 28.2133C127.775 27.3837 130.702 26.9689 134.376 26.9689ZM134.376 33.8667C136.51 33.8667 138.264 33.7244 139.638 33.44C141.013 33.1556 141.701 32.7407 141.701 32.1956C141.701 31.6504 141.013 31.2356 139.638 30.9511C138.264 30.6667 136.51 30.5244 134.376 30.5244C132.243 30.5244 130.489 30.6667 129.114 30.9511C127.739 31.2356 127.052 31.6504 127.052 32.1956C127.052 32.7407 127.739 33.1556 129.114 33.44C130.489 33.7244 132.243 33.8667 134.376 33.8667ZM172.915 24.7644V37.2089H168.435V9.90222H172.915V20.2133H176.15V24.7644H172.915ZM160.684 10.6133C160.684 14.6904 160.352 18.4119 159.688 21.7778L167.439 33.0844L163.741 35.7867L158.088 27.2533C157.069 29.9556 155.765 32.0415 154.177 33.5111C152.613 34.9807 150.847 35.7511 148.879 35.8222V30.9867C150.325 30.7733 151.593 29.7659 152.684 27.9644C153.774 26.163 154.615 23.757 155.208 20.7467C155.824 17.7126 156.133 14.2874 156.133 10.4711L160.684 10.6133Z" fill="#3D3D3D" fill-opacity="0.8"/>
<path d="M12.44 75.1867C10.1289 75.1867 8.32444 74.4933 7.02667 73.1067C5.74667 71.7022 5.10667 69.6756 5.10667 67.0267V56.3333H7.05333V66.9467C7.05333 69.1156 7.51556 70.7333 8.44 71.8C9.36444 72.8667 10.6978 73.4 12.44 73.4C14.1822 73.4 15.5156 72.8667 16.44 71.8C17.3644 70.7333 17.8267 69.1156 17.8267 66.9467V56.3333H19.72V67.0267C19.72 69.6756 19.08 71.7022 17.8 73.1067C16.5378 74.4933 14.7511 75.1867 12.44 75.1867ZM39.1771 75H37.5771L26.2438 59.88V75H24.3238V56.3333H25.8971L37.2304 71.4533V56.3333H39.1771V75ZM61.9983 76.5733C61.465 77.2667 60.825 77.7911 60.0783 78.1467C59.3494 78.52 58.5494 78.7067 57.6783 78.7067C56.6294 78.7067 55.625 78.4311 54.665 77.88C53.7228 77.3467 52.665 76.44 51.4917 75.16C49.6072 75.0889 47.9806 74.6 46.6117 73.6933C45.2606 72.7867 44.2383 71.6222 43.545 70.2C42.8517 68.76 42.505 67.2489 42.505 65.6667C42.505 63.8711 42.905 62.2533 43.705 60.8133C44.5228 59.3556 45.6428 58.2178 47.065 57.4C48.4872 56.5644 50.0783 56.1467 51.8383 56.1467C53.5983 56.1467 55.1894 56.5644 56.6117 57.4C58.0517 58.2178 59.1717 59.3556 59.9717 60.8133C60.7894 62.2533 61.1983 63.8711 61.1983 65.6667C61.1983 67.2311 60.8872 68.6711 60.265 69.9867C59.6428 71.2844 58.7717 72.3689 57.6517 73.24C56.5494 74.1111 55.2872 74.68 53.865 74.9467C55.145 76.4044 56.425 77.1333 57.705 77.1333C58.985 77.1333 60.105 76.5644 61.065 75.4267L61.9983 76.5733ZM44.4783 65.6667C44.4783 67.1244 44.7983 68.44 45.4383 69.6133C46.0783 70.7867 46.9583 71.7111 48.0783 72.3867C49.2161 73.0622 50.4694 73.4 51.8383 73.4C53.225 73.4 54.4783 73.0622 55.5983 72.3867C56.7361 71.7111 57.625 70.7867 58.265 69.6133C58.9228 68.44 59.2517 67.1244 59.2517 65.6667C59.2517 64.2089 58.9228 62.8933 58.265 61.72C57.625 60.5467 56.7361 59.6222 55.5983 58.9467C54.4783 58.2711 53.225 57.9333 51.8383 57.9333C50.4694 57.9333 49.2161 58.2711 48.0783 58.9467C46.9583 59.6222 46.0783 60.5467 45.4383 61.72C44.7983 62.8933 44.4783 64.2089 44.4783 65.6667ZM71.5259 75.1867C69.2148 75.1867 67.4104 74.4933 66.1126 73.1067C64.8326 71.7022 64.1926 69.6756 64.1926 67.0267V56.3333H66.1393V66.9467C66.1393 69.1156 66.6015 70.7333 67.5259 71.8C68.4504 72.8667 69.7837 73.4 71.5259 73.4C73.2682 73.4 74.6015 72.8667 75.5259 71.8C76.4504 70.7333 76.9126 69.1156 76.9126 66.9467V56.3333H78.8059V67.0267C78.8059 69.6756 78.1659 71.7022 76.8859 73.1067C75.6237 74.4933 73.837 75.1867 71.5259 75.1867ZM95.4897 75H82.9297V56.3333H95.143V58.04H84.8497V64.68H94.023V66.36H84.8497V73.2933H95.4897V75ZM101.589 58.0667V56.3333H115.963V58.0667H109.749V75H107.829V58.0667H101.589ZM125.664 68.9733C125.291 69.0444 124.837 69.08 124.304 69.08H119.584V75H117.664V56.3333H124.304C126.58 56.3333 128.357 56.9022 129.637 58.04C130.935 59.16 131.584 60.7156 131.584 62.7067C131.584 64.1822 131.229 65.4267 130.517 66.44C129.824 67.4356 128.829 68.1467 127.531 68.5733L131.877 75H129.717L125.664 68.9733ZM124.251 67.4C125.993 67.4 127.326 67 128.251 66.2C129.175 65.3822 129.637 64.2178 129.637 62.7067C129.637 61.2133 129.175 60.0667 128.251 59.2667C127.326 58.4667 125.993 58.0667 124.251 58.0667H119.584V67.4H124.251ZM136.49 70.0133L134.383 75H132.356L140.436 56.3333H142.356L150.49 75H148.41L146.303 70.0133H136.49ZM141.423 58.44L137.13 68.4133H145.663L141.423 58.44ZM164.677 75H152.117V56.3333H164.331V58.04H154.037V64.68H163.211V66.36H154.037V73.2933H164.677V75ZM170.197 56.3333V73.2667H180.09V75H168.277V56.3333H170.197Z" fill="#3D3D3D" fill-opacity="0.8"/>
</svg>
