<svg width="22" height="17" viewBox="0 0 22 17" fill="none" xmlns="http://www.w3.org/2000/svg">
<path d="M1.22222 2.42857C0.875926 2.42857 0.585648 2.3122 0.351389 2.07946C0.11713 1.84673 0 1.55833 0 1.21429C0 0.870238 0.11713 0.581845 0.351389 0.349107C0.585648 0.116369 0.875926 0 1.22222 0H20.7778C21.1241 0 21.4144 0.116369 21.6486 0.349107C21.8829 0.581845 22 0.870238 22 1.21429C22 1.55833 21.8829 1.84673 21.6486 2.07946C21.4144 2.3122 21.1241 2.42857 20.7778 2.42857H1.22222ZM1.22222 17C0.875926 17 0.585648 16.8836 0.351389 16.6509C0.11713 16.4182 0 16.1298 0 15.7857C0 15.4417 0.11713 15.1533 0.351389 14.9205C0.585648 14.6878 0.875926 14.5714 1.22222 14.5714H20.7778C21.1241 14.5714 21.4144 14.6878 21.6486 14.9205C21.8829 15.1533 22 15.4417 22 15.7857C22 16.1298 21.8829 16.4182 21.6486 16.6509C21.4144 16.8836 21.1241 17 20.7778 17H1.22222ZM1.22222 9.71429C0.875926 9.71429 0.585648 9.59792 0.351389 9.36518C0.11713 9.13244 0 8.84405 0 8.5C0 8.15595 0.11713 7.86756 0.351389 7.63482C0.585648 7.40208 0.875926 7.28571 1.22222 7.28571H20.7778C21.1241 7.28571 21.4144 7.40208 21.6486 7.63482C21.8829 7.86756 22 8.15595 22 8.5C22 8.84405 21.8829 9.13244 21.6486 9.36518C21.4144 9.59792 21.1241 9.71429 20.7778 9.71429H1.22222Z" fill="#D52B1E"/>
</svg>
