<svg width="28" height="27" viewBox="0 0 28 27" fill="none" xmlns="http://www.w3.org/2000/svg">
<path d="M13.1196 26.4287C12.883 26.2025 12.7647 25.922 12.7647 25.5874V14.5652H1.23529C0.885294 14.5652 0.591981 14.4519 0.355353 14.2254C0.118451 13.999 0 13.7184 0 13.3838C0 13.0489 0.118451 12.7685 0.355353 12.5426C0.591981 12.3164 0.885294 12.2032 1.23529 12.2032H12.7647V1.18096C12.7647 0.846354 12.8832 0.565942 13.1201 0.339723C13.357 0.113241 13.6504 0 14.0004 0C14.3507 0 14.644 0.113241 14.8804 0.339723C15.117 0.565942 15.2353 0.846354 15.2353 1.18096V12.2032H26.7647C27.1147 12.2032 27.408 12.3165 27.6446 12.543C27.8815 12.7694 28 13.05 28 13.3846C28 13.7195 27.8815 13.9999 27.6446 14.2258C27.408 14.4521 27.1147 14.5652 26.7647 14.5652H15.2353V25.5874C15.2353 25.922 15.1168 26.2025 14.8799 26.4287C14.643 26.6552 14.3496 26.7684 13.9996 26.7684C13.6493 26.7684 13.356 26.6552 13.1196 26.4287Z" fill="#1D1D1D" fill-opacity="0.8"/>
</svg>
