<svg width="18" height="13" viewBox="0 0 18 13" fill="none" xmlns="http://www.w3.org/2000/svg">
<path d="M0 11.0225C0 10.5641 0.117333 10.155 0.351998 9.79525C0.586664 9.43546 0.900213 9.1558 1.29265 8.95626C2.13074 8.54236 2.97361 8.22334 3.82126 7.9992C4.66905 7.7752 5.60073 7.6632 6.61629 7.6632C7.632 7.6632 8.56368 7.7752 9.41133 7.9992C10.2591 8.22334 11.1021 8.54236 11.9402 8.95626C12.3326 9.1558 12.6461 9.43546 12.8808 9.79525C13.1155 10.155 13.2328 10.5641 13.2328 11.0225V11.6487C13.2328 12.0067 13.1025 12.3214 12.8418 12.5928C12.5811 12.8643 12.2647 13 11.8925 13H1.34006C0.968069 13 0.651726 12.8686 0.391036 12.6057C0.130345 12.3428 0 12.0237 0 11.6487V11.0225ZM14.6562 13C14.7671 12.7959 14.8516 12.5789 14.9099 12.3491C14.9681 12.1194 14.9972 11.8859 14.9972 11.6487V10.9131C14.9972 10.3293 14.8553 9.77287 14.5715 9.24378C14.2876 8.71455 13.8855 8.2607 13.3651 7.88223C13.9566 7.97118 14.5182 8.10882 15.0499 8.29517C15.5814 8.48166 16.0887 8.70202 16.5717 8.95626C17.0275 9.20146 17.3795 9.48994 17.6277 9.82171C17.8759 10.1536 18 10.5174 18 10.9131V11.6487C18 12.0237 17.8697 12.3428 17.609 12.6057C17.3483 12.8686 17.0319 13 16.6599 13H14.6562ZM4.43372 5.31367C3.83045 4.70543 3.52881 3.97191 3.52881 3.11313C3.52881 2.2545 3.83045 1.52099 4.43372 0.912592C5.03715 0.304197 5.76467 0 6.61629 0C7.46806 0 8.19558 0.304197 8.79886 0.912592C9.40228 1.52099 9.704 2.2545 9.704 3.11313C9.704 3.97191 9.40228 4.70543 8.79886 5.31367C8.19558 5.92207 7.46806 6.22627 6.61629 6.22627C5.76467 6.22627 5.03715 5.92207 4.43372 5.31367ZM13.3287 5.31367C12.7253 5.92207 11.9978 6.22627 11.1462 6.22627C11.0466 6.22627 10.92 6.21485 10.7662 6.19202C10.6122 6.16919 10.4856 6.14414 10.3862 6.11686C10.7321 5.69377 10.999 5.22591 11.1868 4.71328C11.3745 4.2008 11.4684 3.66742 11.4684 3.11313C11.4684 2.559 11.3731 2.02702 11.1826 1.51721C10.992 1.00754 10.7265 0.53835 10.3862 0.109627C10.5128 0.0639673 10.6394 0.0343184 10.7662 0.0206799C10.8928 0.0068932 11.0194 0 11.1462 0C11.9978 0 12.7253 0.304197 13.3287 0.912592C13.932 1.52099 14.2337 2.2545 14.2337 3.11313C14.2337 3.97191 13.932 4.70543 13.3287 5.31367Z" fill="white"/>
</svg>
