<svg width="21" height="21" viewBox="0 0 21 21" fill="none" xmlns="http://www.w3.org/2000/svg">
<path d="M7.76671 15.5334C5.59602 15.5334 3.75889 14.7816 2.25533 13.2781C0.751778 11.7745 0 9.93741 0 7.76671C0 5.59602 0.751778 3.75889 2.25533 2.25533C3.75889 0.751778 5.59602 0 7.76671 0C9.93741 0 11.7745 0.751778 13.2781 2.25533C14.7816 3.75889 15.5334 5.59602 15.5334 7.76671C15.5334 8.64296 15.394 9.46942 15.1152 10.2461C14.8364 11.0228 14.458 11.7098 13.9801 12.3073L20.6714 18.9986C20.8905 19.2176 21 19.4964 21 19.835C21 20.1735 20.8905 20.4523 20.6714 20.6714C20.4523 20.8905 20.1735 21 19.835 21C19.4964 21 19.2176 20.8905 18.9986 20.6714L12.3073 13.9801C11.7098 14.458 11.0228 14.8364 10.2461 15.1152C9.46942 15.394 8.64296 15.5334 7.76671 15.5334ZM7.76671 13.1437C9.26031 13.1437 10.5299 12.6209 11.5754 11.5754C12.6209 10.5299 13.1437 9.26031 13.1437 7.76671C13.1437 6.27311 12.6209 5.00356 11.5754 3.95804C10.5299 2.91252 9.26031 2.38976 7.76671 2.38976C6.27311 2.38976 5.00356 2.91252 3.95804 3.95804C2.91252 5.00356 2.38976 6.27311 2.38976 7.76671C2.38976 9.26031 2.91252 10.5299 3.95804 11.5754C5.00356 12.6209 6.27311 13.1437 7.76671 13.1437Z" fill="#D52B1E"/>
</svg>
