<svg width="178" height="53" viewBox="0 0 178 53" fill="none" xmlns="http://www.w3.org/2000/svg">
<g clip-path="url(#clip0_9_239)">
<path d="M149.345 13.4698C149.345 13.9404 149.405 14.4287 149.562 14.8816C150.26 16.9327 152.038 18.1935 154.296 17.1191C154.836 16.8616 169.786 9.73161 169.786 9.73161C169.786 9.73161 163.897 27.4012 163.672 28.0583C162.817 30.5978 163.845 32.8797 165.593 33.6522C165.983 33.8209 166.388 33.9008 166.785 33.9008C168.218 33.9008 169.478 32.8975 170.101 30.8996C170.191 30.5978 177.557 6.66829 177.722 6.09114C177.82 5.75373 177.985 4.94572 177.992 4.39521C177.992 3.20539 177.625 2.09549 176.912 1.25197C176.207 0.426202 175.277 0 174.287 0C173.807 0 173.417 0.0976713 172.824 0.328531C172.471 0.461719 153.493 8.82593 151.865 9.53627C150.237 10.2555 149.345 11.7827 149.345 13.4786" fill="#ED1C24"/>
<path d="M87.3237 44.9022V42.1585C89.7991 41.3949 91.607 39.0863 91.607 36.3515C91.607 34.62 90.8793 33.0662 89.7241 31.9563H92.2521V28.8308H87.4287V25.803H83.6705V28.8308H78.7346V31.9563H81.3751C80.2199 33.0662 79.4922 34.62 79.4922 36.3515C79.4922 39.0064 81.2026 41.2528 83.573 42.0786V44.8933H77.9395V48.1076H90.7818C91.8845 48.1076 93.0997 47.9122 93.1072 47.9033V44.769C93.1072 44.769 92.2071 44.8933 91.0894 44.8933H87.3312L87.3237 44.9022ZM85.5458 32.9419C86.9261 32.9419 88.0438 34.4336 88.0438 36.2716C88.0438 38.1096 86.9186 39.6013 85.5458 39.6013C84.1731 39.6013 83.0479 38.1096 83.0479 36.2716C83.0479 34.4336 84.1731 32.9419 85.5458 32.9419Z" fill="#454B52"/>
<path d="M97.7279 26.5134H93.9697V52.9912H97.7279V37.7723H101.426V34.5669H97.7279V26.5134Z" fill="#454B52"/>
<path d="M143.269 40.6224C144.371 40.6224 145.579 40.4271 145.594 40.4271V37.2927C145.594 37.2927 144.694 37.417 143.569 37.417H137.74C136.87 37.3993 136.435 36.9464 136.42 36.0319V30.5534H143.794V27.3391H132.617V36.831C132.617 39.2017 134.402 40.6224 136.12 40.6224H143.261H143.269Z" fill="#454B52"/>
<path d="M49.3665 46.7756H39.8022V43.5258C42.9228 42.7178 45.2407 39.9475 45.2407 36.6622C45.2407 34.8952 44.5731 33.2792 43.4704 32.0361H47.4611V28.8218H39.8097V25.7852H36.0516V28.8218H28.4002V32.0361H32.3909C31.2882 33.2792 30.6206 34.8952 30.6206 36.6622C30.6206 39.9475 32.931 42.7178 36.0516 43.5258V46.7756H26.4873V49.9899H49.3665V46.7756ZM34.4838 36.5645C34.4838 34.3714 36.029 32.5866 37.9269 32.5866C39.8247 32.5866 41.37 34.3714 41.37 36.5645C41.37 38.7577 39.8247 40.5424 37.9269 40.5424C36.029 40.5424 34.4838 38.7577 34.4838 36.5645Z" fill="#454B52"/>
<path d="M7.08877 52.9734H18.7234V42.9044C18.7234 42.3539 18.3483 41.9099 17.8907 41.9099H3.57812V49.182C3.57812 51.3751 5.05589 52.9645 7.08126 52.9645M7.33631 45.1331H14.9652V49.768H8.65655C7.74138 49.768 7.35131 49.3418 7.33631 48.4006V45.1331Z" fill="#454B52"/>
<path d="M22.8792 36.1917H18.1983C18.4234 35.1883 18.9785 32.0806 18.9785 26.6466V26.4956H3.37562V29.7099H15.0402C15.0402 29.923 15.0402 30.1894 15.0402 30.4469C15.0402 33.4391 14.9127 35.4015 14.8452 36.1917H0V39.406H22.8792V36.1917Z" fill="#454B52"/>
<path d="M58.5034 48.4006V44.1208H54.7002V49.1998C54.7002 51.5705 56.4855 52.9912 58.2033 52.9912H70.2805V49.7858H59.8236C58.9535 49.768 58.5184 49.3152 58.5034 48.4006Z" fill="#454B52"/>
<path d="M51.377 42.2206H61.3913V47.2019H65.1495V42.2206H74.2561V39.0063H51.377V42.2206Z" fill="#454B52"/>
<path d="M58.5707 37.0707H70.2053V26.5222H55.0601V33.2882C55.0601 35.4813 56.5378 37.0707 58.5707 37.0707ZM58.8257 29.7276H66.4546V33.8564H60.146C59.2308 33.8564 58.8407 33.4302 58.8257 32.489V29.7276Z" fill="#454B52"/>
<path d="M139.713 48.4185V42.9844H135.955V49.2176C135.955 51.4107 137.433 53.0001 139.466 53.0001H151.04V49.7947H141.033C140.118 49.7947 139.728 49.3685 139.713 48.4185Z" fill="#454B52"/>
<path d="M150.987 26.4956H147.304V43.3661H150.987V35.144H154.678V31.9297H150.987V26.4956Z" fill="#454B52"/>
<path d="M122.797 34.5225H121.342V26.5134H117.861V52.9912H121.342V37.8078H122.797V52.9912H126.278V26.5134H122.797V34.5225Z" fill="#454B52"/>
<path d="M112.55 30.6332H116.459V27.4189H105.394V30.6332H109.122L104.974 45.0975H108.545L110.803 36.9286C113.098 39.8676 113.646 45.0975 113.646 45.0975H116.834C116.834 45.0975 116.669 38.2161 112.003 32.5778L112.543 30.6243L112.55 30.6332Z" fill="#454B52"/>
</g>
<defs>
<clipPath id="clip0_9_239">
<rect width="178" height="53" fill="white"/>
</clipPath>
</defs>
</svg>
