<svg width="44" height="44" viewBox="0 0 44 44" fill="none" xmlns="http://www.w3.org/2000/svg">
<rect opacity="0.3" width="44" height="44" fill="white"/>
<path d="M9.93988 27.2064V21.6105L8.48952 18.4197C7.96377 17.1446 6.15687 17.1446 5.62508 18.4197L0.119785 30.5422C-0.303234 31.5635 0.446114 32.6815 1.55201 32.6815H12.5686C12.756 32.6815 12.9252 32.6392 13.0823 32.5848C11.2089 31.5212 9.93988 29.5149 9.93988 27.2064Z" fill="#35763C"/>
<path d="M43.8418 29.5509L38.6508 12.4005C37.98 10.5332 35.6836 10.5332 35.0128 12.4005L31.8583 21.725C32.9461 22.9699 33.6108 24.6016 33.6108 26.3843C33.6108 28.9647 32.233 31.2128 30.1783 32.4577C30.4321 32.6027 30.7222 32.6873 31.0364 32.6873H42.0289C43.4309 32.6873 44.3857 31.0496 43.8479 29.5569L43.8418 29.5509Z" fill="#648943"/>
<path d="M22.3041 20.6675V19.477C22.3041 16.0627 19.5364 13.2949 16.122 13.2949C12.7076 13.2949 9.93988 16.0627 9.93988 19.477V21.6103L14.0009 30.542C14.3514 31.3881 13.886 32.3006 13.0884 32.5846C13.9888 33.0922 15.0222 33.3883 16.128 33.3883C18.1465 33.3883 19.9292 32.4214 21.0592 30.9288C20.0319 29.696 19.4155 28.1127 19.4155 26.3843C19.4155 24.0396 20.5577 21.9608 22.3162 20.6675H22.3041Z" fill="#A4BC49"/>
<path d="M14.0009 30.548L9.93988 21.6162V27.2122C9.93988 29.5206 11.2089 31.533 13.0823 32.5905C13.88 32.3065 14.3453 31.4 13.9948 30.548H14.0009Z" fill="#25602E"/>
<path d="M29.2114 29.551L31.8583 21.7251C30.559 20.2325 28.6433 19.2837 26.5101 19.2837C24.9329 19.2837 23.4825 19.8034 22.3101 20.6676V27.2062C22.3101 28.6082 21.8388 29.8894 21.0592 30.9288C22.3645 32.494 24.3225 33.4851 26.5162 33.4851C27.8577 33.4851 29.1147 33.1043 30.1843 32.4577C29.29 31.9622 28.8005 30.7113 29.2174 29.551H29.2114Z" fill="#68AC45"/>
<path d="M33.6108 26.3839C33.6108 24.5951 32.9461 22.9695 31.8583 21.7246L29.2114 29.5505C28.7945 30.7107 29.2779 31.9556 30.1783 32.4572C32.233 31.2123 33.6108 28.9643 33.6108 26.3839Z" fill="#33753C"/>
<path d="M22.3041 20.6675C20.5516 21.9607 19.4034 24.0335 19.4034 26.3843C19.4034 28.1126 20.0198 29.6959 21.0471 30.9287C21.8328 29.8953 22.2981 28.6082 22.2981 27.2061V20.6675H22.3041Z" fill="#448C38"/>
</svg>
