<svg width="141" height="33" viewBox="0 0 141 33" fill="none" xmlns="http://www.w3.org/2000/svg">
<path d="M15.1959 23.7226V15.503L12.9786 10.8163C12.1749 8.94339 9.41252 8.94339 8.59952 10.8163L0.183125 28.6223C-0.463579 30.1224 0.682012 31.7646 2.37268 31.7646H19.2147C19.5011 31.7646 19.7598 31.7024 20 31.6225C17.136 30.0603 15.1959 27.1133 15.1959 23.7226Z" fill="#35763C"/>
<path d="M65.64 27.1709L57.6867 2.05126C56.659 -0.683754 53.1406 -0.683754 52.1129 2.05126L47.2798 15.7086C48.9464 17.532 49.9649 19.9218 49.9649 22.5329C49.9649 26.3124 47.8539 29.605 44.7059 31.4284C45.0947 31.6408 45.5392 31.7647 46.0206 31.7647H62.8624C65.0104 31.7647 66.4733 29.366 65.6493 27.1798L65.64 27.1709Z" fill="#648943"/>
<path d="M34.0993 14.321V12.5784C34.0993 7.5806 29.8897 3.5293 24.6967 3.5293C19.5037 3.5293 15.2941 7.5806 15.2941 12.5784V15.7009L21.4706 28.7748C22.0037 30.0132 21.296 31.3488 20.0827 31.7646C21.4522 32.5076 23.0239 32.9411 24.7059 32.9411C27.7757 32.9411 30.4871 31.5258 32.2059 29.3409C30.6434 27.5364 29.7059 25.2188 29.7059 22.689C29.7059 19.2569 31.443 16.2139 34.1177 14.321H34.0993Z" fill="#A4BC49"/>
<path d="M21.0183 28.699L15.2941 15.2939V23.6925C15.2941 27.1571 17.0829 30.1773 19.7236 31.7645C20.8479 31.3383 21.5038 29.9778 21.0098 28.699H21.0183Z" fill="#25602E"/>
<path d="M44.1983 27.0748L48.2353 15.4052C46.2537 13.1794 43.3319 11.7646 40.0783 11.7646C37.6727 11.7646 35.4607 12.5396 33.6726 13.8282V23.5784C33.6726 25.669 32.9537 27.5794 31.7647 29.1294C33.7556 31.4633 36.7418 32.9411 40.0876 32.9411C42.1337 32.9411 44.0508 32.3734 45.6822 31.4092C44.3181 30.6703 43.5716 28.8049 44.2075 27.0748H44.1983Z" fill="#68AC45"/>
<path d="M50.5882 22.4442C50.5882 19.6991 49.5572 17.2044 47.8699 15.2939L43.7644 27.3037C43.1176 29.0844 43.8675 30.9948 45.2641 31.7645C48.4511 29.8541 50.5882 26.4042 50.5882 22.4442Z" fill="#33753C"/>
<path d="M34.1176 14.1172C31.2745 16.0447 29.4117 19.1342 29.4117 22.6379C29.4117 25.214 30.4117 27.5738 32.0784 29.4113C33.3529 27.8711 34.1078 25.9526 34.1078 23.8629V14.1172H34.1176Z" fill="#448C38"/>
<path d="M76.3009 5.20587V7.27527C76.3009 9.21925 77.2326 11.1632 79.6065 12.1397V4.48024H82.1149V8.52945H83.4497V4.13086H86.0208V15.2572H83.4497V10.6974H82.1149V14.6839H79.6065V12.2293L78.2269 14.1912C76.7309 13.5999 75.6917 12.5518 75.0467 11.2528C74.3748 12.7937 73.2819 14.0658 71.6067 14.7735L70.1912 12.6862C72.7265 11.5753 73.694 9.32675 73.694 7.25735V5.18795H76.3098L76.3009 5.20587ZM86.1104 18.9212C86.1104 21.0713 83.6378 22.3613 79.8126 22.3613C75.9873 22.3613 73.5327 21.0623 73.5327 18.9212C73.5327 16.7802 75.9873 15.4991 79.8126 15.4991C83.6378 15.4991 86.1104 16.7981 86.1104 18.9212ZM76.2023 18.9212C76.2023 19.8708 77.5013 20.3367 79.8126 20.3367C82.1239 20.3367 83.396 19.8708 83.396 18.9212C83.396 17.9716 82.1418 17.5237 79.8126 17.5237C77.4834 17.5237 76.2023 17.9896 76.2023 18.9212Z" fill="#624A26"/>
<path d="M103.472 4.13086V14.7824H100.757V12.516H97.5772V13.8328H88.9233V5.40296H97.5772V6.71985H100.757V4.13086H103.472ZM103.535 18.7958C103.535 21.0623 101.125 22.3613 97.2726 22.3613C93.4205 22.3613 91.0107 21.0623 91.0107 18.7958C91.0107 16.5293 93.4026 15.2483 97.2726 15.2483C101.143 15.2483 103.535 16.5652 103.535 18.7958ZM91.575 7.55298V11.7276H94.9165V7.55298H91.575ZM93.7071 18.7958C93.7071 19.8081 94.9255 20.3188 97.2726 20.3188C99.6197 20.3188 100.838 19.8081 100.838 18.7958C100.838 17.7835 99.6197 17.3177 97.2726 17.3177C94.9255 17.3177 93.7071 17.7835 93.7071 18.7958ZM100.757 10.3749V8.85196H97.5772V10.3749H100.757Z" fill="#624A26"/>
<path d="M117.429 15.9472L117.635 17.8912C113.702 18.6616 109.411 18.7243 106.267 18.7243L105.962 16.5385C109.143 16.5385 113.622 16.5206 117.429 15.9472ZM116.757 9.82862C116.757 12.4624 114.589 14.3437 111.732 14.3437C108.874 14.3437 106.688 12.4624 106.688 9.82862C106.688 7.19483 108.856 5.31356 111.732 5.31356C114.607 5.31356 116.757 7.19483 116.757 9.82862ZM109.322 9.82862C109.322 11.2261 110.379 12.0324 111.732 12.0324C113.084 12.0324 114.123 11.2261 114.123 9.82862C114.123 8.4311 113.093 7.62484 111.732 7.62484C110.37 7.62484 109.322 8.41318 109.322 9.82862ZM121.111 4.09521V22.3883H118.415V4.09521H121.111Z" fill="#624A26"/>
<path d="M130.455 15.741V14.3256H123.61V12.1577H140.076V14.3256H133.187V15.741H138.374V17.8463H135.946V19.9515H138.562V22.0836H125.169V19.9515H127.758V17.8463H125.348V15.741H130.455ZM133.223 4.31006V4.83861C133.223 6.68405 135.131 8.74449 139.279 9.2372L138.329 11.3424C135.212 10.9393 132.999 9.64033 131.843 7.92031C130.688 9.66721 128.484 10.9393 125.339 11.3424L124.39 9.2372C128.564 8.75344 130.446 6.70196 130.446 4.83861V4.31006H133.223ZM133.286 19.9515V17.8463H130.41V19.9515H133.286Z" fill="#624A26"/>
<path d="M76.5428 27.9604H73.7747V29.555H76.1307V30.415H73.7747V32.8876H72.7803V27.1094H76.5428V27.9694V27.9604Z" fill="#624A26"/>
<path d="M82.8226 29.9937C82.8226 31.7227 81.6222 32.941 79.9201 32.941C78.218 32.941 77.0265 31.7227 77.0265 29.9937C77.0265 28.2647 78.2269 27.0464 79.9201 27.0464C81.6132 27.0464 82.8226 28.2647 82.8226 29.9937ZM81.8282 29.9937C81.8282 28.7306 81.0757 27.9064 79.9201 27.9064C78.7644 27.9064 78.0209 28.7216 78.0209 29.9937C78.0209 31.2658 78.7734 32.0721 79.9201 32.0721C81.0667 32.0721 81.8282 31.2569 81.8282 29.9937Z" fill="#624A26"/>
<path d="M86.9614 32.8783L85.6087 30.8447H84.7397V32.8783H83.7453V27.1001H86.0924C87.1495 27.1001 87.8841 27.8257 87.8841 28.9366C87.8841 29.6533 87.5975 30.2624 86.7016 30.6835L88.1618 32.8783H86.9614ZM86.8808 28.9724C86.8808 28.3274 86.4956 27.9601 85.9043 27.9601H84.7308V29.9937H85.9043C86.4956 29.9937 86.8808 29.6264 86.8808 28.9724Z" fill="#624A26"/>
<path d="M92.883 27.9604H90.0432V29.4744H92.4799V30.3344H90.0432V32.0186H92.883V32.8876H89.0488V27.1094H92.883V27.9694V27.9604Z" fill="#624A26"/>
<path d="M95.7766 32.0901C96.4933 32.0901 96.8337 31.7586 96.8337 31.2749C96.8337 30.1192 93.9939 30.6299 93.9939 28.6142C93.9939 27.6288 94.7822 27.0375 95.8931 27.0465C96.5918 27.0465 97.3802 27.4586 97.7295 28.4171L96.8516 28.7307C96.6097 28.0946 96.2245 27.9065 95.8841 27.8975C95.3108 27.8975 94.9883 28.2021 94.9883 28.6142C94.9883 29.7609 97.8191 29.3667 97.8191 31.2838C97.8191 32.2693 97.0397 32.9501 95.7676 32.9411C94.9166 32.9411 94.2268 32.4395 93.7341 31.6153L94.5493 31.1495C94.9166 31.8482 95.3645 32.0901 95.7766 32.0901Z" fill="#624A26"/>
<path d="M102.63 27.9601H101.062V32.8783H100.059V27.9601H98.4731V27.1001H102.63V27.9601Z" fill="#624A26"/>
<path d="M109.16 27.9604H106.392V29.555H108.748V30.415H106.392V32.8876H105.398V27.1094H109.16V27.9694V27.9604Z" fill="#624A26"/>
<path d="M115.449 29.9937C115.449 31.7227 114.249 32.941 112.547 32.941C110.845 32.941 109.653 31.7227 109.653 29.9937C109.653 28.2647 110.854 27.0464 112.547 27.0464C114.24 27.0464 115.449 28.2647 115.449 29.9937ZM114.446 29.9937C114.446 28.7306 113.693 27.9064 112.538 27.9064C111.382 27.9064 110.639 28.7216 110.639 29.9937C110.639 31.2658 111.391 32.0721 112.538 32.0721C113.684 32.0721 114.446 31.2569 114.446 29.9937Z" fill="#624A26"/>
<path d="M119.579 32.8783L118.226 30.8447H117.357V32.8783H116.363V27.1001H118.71C119.767 27.1001 120.502 27.8257 120.502 28.9366C120.502 29.6533 120.215 30.2624 119.319 30.6835L120.78 32.8783H119.579ZM119.499 28.9724C119.499 28.3274 119.113 27.9601 118.522 27.9601H117.349V29.9937H118.522C119.113 29.9937 119.499 29.6264 119.499 28.9724Z" fill="#624A26"/>
<path d="M124.596 32.0186H127.122V32.8876H123.601V27.1094H124.596V32.0186Z" fill="#624A26"/>
<path d="M129.129 27.1001V32.8783H128.134V27.1001H129.129Z" fill="#624A26"/>
<path d="M134.038 27.9604H131.27V29.555H133.626V30.415H131.27V32.8876H130.275V27.1094H134.038V27.9694V27.9604Z" fill="#624A26"/>
<path d="M138.804 27.9604H135.964V29.4744H138.401V30.3344H135.964V32.0186H138.804V32.8876H134.97V27.1094H138.804V27.9694V27.9604Z" fill="#624A26"/>
</svg>
