<svg width="393" height="393" viewBox="0 0 393 393" fill="none" xmlns="http://www.w3.org/2000/svg">
<path d="M392.79 221.498H363.44C379.848 235.206 391.078 253.82 377.175 275.237C351.833 314.285 259.62 314.421 232.078 278.509C215.712 257.168 225.537 236.463 243.225 221.498H212.469V197.158H390.703L392.804 199.445V221.498H392.79ZM298.837 228.026C285.449 228.602 254.679 234.963 257.449 255.32C260.566 278.221 301.913 280.175 317.834 277.6C327.242 276.086 345.278 270.3 348.688 259.455C357.107 232.615 314.341 227.36 298.851 228.026H298.837Z" fill="#2E008B"/>
<path d="M320.102 80V99.7812H387.905L390.007 102.068V124.122H367.642C394.265 164.396 348.354 188.585 316.679 191.129C288.219 193.416 226.971 185.525 232.022 141.585C232.83 134.557 237.297 130.422 239.036 124.137H218.064V99.7812H287.954V80H320.102ZM293.229 124.546C253.955 129.438 254.54 163.654 293.02 168.061C306.575 169.606 340.324 167.622 343.608 148.84C347.658 125.742 306.993 122.834 293.229 124.546Z" fill="#2E008B"/>
<path d="M131.375 124.122H85.2409C85.4219 158.14 100.647 183.329 128.55 197.915L112.546 215.379C94.3565 207.427 75.7218 191.387 68.4572 171.287C57.7829 186.252 45.6752 198.839 30.2692 208.063C27.7364 209.578 19.0522 214.894 17.1039 215.197C11.718 216.045 3.91065 201.701 0 197.915C28.9054 182.829 48.0828 160.473 50.2956 124.122H4.17507V99.7812H129.288L131.389 102.068V124.122H131.375Z" fill="#2E008B"/>
<path d="M55.8902 226.057V268.663H177.51V293.004H28.627C27.1797 293.004 23.7283 289.263 23.7283 287.672V226.057H55.8763H55.8902Z" fill="#2E008B"/>
<path d="M177.51 96.7368H145.362V233.66H177.51V96.7368Z" fill="#2E008B"/>
</svg>
