<svg width="188" height="69" viewBox="0 0 188 69" fill="none" xmlns="http://www.w3.org/2000/svg">
<path d="M176.433 61.3837C172.877 64.4142 168.653 63.0104 165.145 58.8944C163.402 56.8486 162.533 54.9406 162.283 53.5134C162.061 52.3153 162.869 51.2902 163.855 51.1646C165.164 50.9739 165.866 52.1421 166.268 53.3546C166.544 54.171 166.953 55.2933 167.867 56.3649C169.652 58.4594 171.317 58.6376 172.73 57.4338L173.534 56.7488C172.334 56.4261 171.399 55.6251 170.506 54.5779C167.497 51.0464 166.453 46.7639 169.819 43.5593C170.581 42.8256 171.34 42.137 172.181 41.5459C175.983 38.8528 180.004 40.5128 182.952 43.9712C184.052 45.262 184.721 46.5412 185.03 47.7916C185.728 47.8699 186.4 48.264 186.898 48.8485C187.791 49.8958 188.123 51.4205 186.881 52.4791L176.433 61.3837ZM173.257 47.6924C172.046 48.9351 172.138 50.6222 173.404 52.1078C174.691 53.6178 176.078 54.1597 177.542 53.1642C178.478 52.5352 179.546 51.667 180.221 50.881C181.37 49.5653 181.292 47.9928 180.005 46.4828C178.738 44.9971 177.307 44.4516 175.79 45.5337C175.042 46.087 174.044 46.938 173.257 47.6924Z" fill="#DA5C67"/>
<path d="M157.107 24.1575C158.104 22.8656 159.618 23.1042 160.707 23.945C161.416 24.4925 161.876 25.0494 161.776 26.2257C163.134 26.1421 164.68 26.8101 165.998 27.8268C169.696 30.6816 171.148 34.875 168.514 38.3396L164.447 43.6084C163.372 45.0016 162.253 45.351 160.581 44.0604C159.315 43.0827 158.948 41.8295 159.789 40.7403L164.306 34.8888C165.342 33.5463 164.822 31.8109 163.328 30.6573C161.808 29.484 160.157 29.4227 158.949 30.6733C158.846 30.755 158.748 30.8817 158.67 30.983L154.72 36.0999C153.645 37.4931 152.475 37.8033 150.829 36.5323C149.588 35.5742 149.246 34.3405 150.087 33.2513L157.107 24.1575Z" fill="#DA5C67"/>
<path d="M150.127 12.719C150.977 11.1777 152.689 10.9889 154.23 11.8387C155.772 12.6885 156.554 14.2525 155.704 15.7937C154.854 17.335 153.129 17.4803 151.588 16.6305C150.047 15.7807 149.278 14.2602 150.127 12.719ZM142.198 28.2259L147.606 18.418C148.394 16.9889 149.898 16.9778 151.103 17.6422C152.308 18.3066 153.13 19.6001 152.342 21.0292L146.934 30.8372C146.115 32.3223 144.583 32.3179 143.378 31.6535C142.173 30.9891 141.379 29.7111 142.198 28.2259Z" fill="#DA5C67"/>
<path d="M124.771 20.7167L135.729 15.056L130.301 12.9446C128.691 12.3182 128.407 11.2809 128.79 10.2968C129.127 9.43191 129.904 8.66981 131.693 9.36586L142.042 13.3914C143.622 14.0062 143.964 14.8943 143.592 15.8487C143.476 16.1469 143.266 16.5114 142.829 16.7533L131.954 22.3775L138.455 24.9065C140.096 25.5445 140.356 26.6414 139.984 27.5958C139.66 28.4308 138.829 29.241 137.04 28.5449L125.111 23.9046C123.023 23.0925 123.825 21.207 124.771 20.7167Z" fill="#DA5C67"/>
<path d="M120.343 2.04873C120.759 0.338626 122.362 -0.292347 124.072 0.123778C125.782 0.539903 126.946 1.84424 126.53 3.55434C126.114 5.26444 124.488 5.85676 122.778 5.44063C121.068 5.02451 119.927 3.75883 120.343 2.04873ZM116.755 19.0918L119.404 8.20934C119.789 6.62361 121.238 6.21868 122.575 6.54401C123.912 6.86934 125.044 7.90224 124.658 9.48797L122.01 20.3704C121.609 22.0183 120.129 22.4157 118.792 22.0904C117.455 21.765 116.354 20.7397 116.755 19.0918Z" fill="#DA5C67"/>
<path d="M84.9505 6.41685C85.0067 4.78582 86.3752 4.0965 87.7824 4.14496C89.0616 4.18901 89.806 4.88704 90.0387 5.56745C91.0731 4.35433 92.5222 4.11606 94.1532 4.17222C96.6797 4.25922 98.5423 5.02777 99.8669 6.54625C101.099 5.17983 102.916 4.47396 105.315 4.55655C110.048 4.71953 113.357 7.17088 113.208 11.5203L112.962 18.6521C112.912 20.0912 112.338 20.968 110.227 20.8953C108.628 20.8402 107.503 20.033 107.555 18.5299L107.805 11.2702C107.863 9.57523 106.78 8.48132 104.925 8.41745C103.007 8.35137 101.818 9.39908 101.757 11.158L101.507 18.4177C101.458 19.8569 100.729 20.5682 98.6501 20.4966C96.9231 20.4372 96.0221 19.6377 96.0694 18.2625L96.3238 10.8749C96.3822 9.17989 95.2672 8.08487 93.4763 8.0232C91.2056 7.94502 90.33 9.19563 90.2662 11.0505L90.0448 17.4787C89.9843 19.2377 89.1837 20.1707 87.1369 20.1002C85.5378 20.0451 84.5089 19.2412 84.5563 17.8661L84.9505 6.41685Z" fill="#DA5C67"/>
<path d="M69.4662 6.41423C73.8657 5.4129 78.4107 7.06957 79.6416 10.8917C79.9696 11.9001 80.1656 12.9056 80.3305 13.9183C80.9686 17.8754 77.7443 21.3003 73.0951 22.3585C68.4772 23.4095 64.1606 21.6024 62.951 17.8739C62.6542 16.8584 62.4269 15.86 62.2621 14.8473C61.6793 10.8448 64.7547 7.48656 69.4662 6.41423ZM68.2 16.712C68.5906 18.4281 70.3155 19.0857 72.2501 18.6454C74.1534 18.2122 75.2678 16.9084 75.0956 15.1426C74.979 14.0533 74.668 12.9754 74.3855 12.0224C73.8701 10.3347 72.3225 9.73517 70.3255 10.1897C68.5158 10.6016 67.339 11.9196 67.4898 13.5918C67.6065 14.6811 67.8479 15.742 68.2 16.712Z" fill="#DA5C67"/>
<path d="M55.3291 10.1999C56.9488 9.51127 57.7242 10.19 58.1499 11.1913C58.4754 11.957 58.5816 13.0245 56.8441 13.7632L54.1642 14.9025L58.0204 23.9729C58.684 25.5336 57.7351 26.7368 56.4393 27.2877C55.1436 27.8386 53.6482 27.6746 52.9846 26.1138L49.1284 17.0435L46.1835 18.2955C44.6227 18.9591 43.7884 18.3054 43.4003 17.3924C43.0122 16.4795 42.99 15.4458 44.6686 14.7322L47.6135 13.4802L45.5226 8.56216C44.8716 7.03081 45.791 5.84016 47.0868 5.28927C48.3825 4.73839 49.9074 4.88987 50.5584 6.42122L52.6493 11.3392L55.3291 10.1999Z" fill="#DA5C67"/>
<path d="M40.4105 32.0665C42.1186 30.9956 42.2023 30.2255 41.8794 29.7104C41.2164 28.653 38.9483 29.4329 38.1313 29.7563C35.246 30.6965 32.0896 31.8066 30.3388 29.0141C29.098 27.0349 29.3852 23.7578 34.0756 20.8172C35.7837 19.7464 37.6516 18.9908 38.9608 18.8499C40.3852 18.7122 40.9834 19.5458 41.1408 20.5802C41.2914 21.5433 40.614 22.2701 39.0305 22.6963C38.1896 22.9213 37.2164 23.116 36.0235 23.8639C34.4509 24.8498 34.4485 25.5689 34.7715 26.084C35.2304 26.8161 36.478 26.3361 38.3597 25.7229C41.1297 24.7795 44.412 23.9303 46.2477 26.8585C47.8115 29.3528 46.4758 32.343 42.2733 34.9776C39.6705 36.6094 37.6666 37.1481 36.0892 37.0417C34.8035 36.9791 34.2224 36.1726 34.2414 35.1787C34.2567 33.9983 35.2971 33.3082 36.3484 33.1779C37.6203 33.0981 38.8651 33.0353 40.4105 32.0665Z" fill="#DA5C67"/>
<path d="M32.5277 38.4208C33.6816 39.6637 33.2209 41.0957 32.1655 42.0755C31.5324 42.6634 30.658 43.0385 29.7854 42.757C29.5273 44.2192 28.8254 45.4385 27.5825 46.5925C24.0882 49.8365 19.7349 50.6033 16.7722 47.4591L12.0258 42.3467C10.8501 41.0804 10.6643 39.9866 12.2121 38.5496C13.4081 37.4392 14.6593 37.2819 15.6173 38.3138L20.7991 43.8952C21.9531 45.1381 23.7486 44.9557 25.1557 43.6493C26.5393 42.3648 27.0386 40.5039 25.7758 39.1438L21.0077 34.0079C19.832 32.7416 19.74 31.5607 21.2409 30.1673C22.4134 29.0787 23.6881 28.8995 24.6461 29.9314L32.5277 38.4208Z" fill="#DA5C67"/>
<path d="M15.656 59.625C12.0563 64.5645 8.27277 64.9749 5.17381 63.0333C4.25683 62.4442 3.37755 61.8034 2.56182 61.1298C-0.350873 58.7696 -1.24825 54.9479 2.37029 49.9825C3.89686 47.8878 5.65796 46.5579 6.85586 46.1638C8.07261 45.7438 8.95189 46.3846 9.31793 47.4037C9.68396 48.4227 8.86654 49.4901 7.93909 50.0021C7.35526 50.3685 6.59963 50.8077 5.73268 51.9974C4.16842 54.1438 4.3175 55.6779 5.76092 56.8486C6.52493 57.4846 7.35249 58.0877 8.16602 58.6014C9.7155 59.5722 11.2027 59.2701 12.7858 57.0978C13.6716 55.8823 13.8421 54.779 13.9674 54.118C14.2299 52.7255 15.0964 51.9711 16.2045 52.0263C17.1267 52.0649 18.006 52.7056 18.0779 53.748C18.152 54.9502 17.3899 57.2457 15.656 59.625Z" fill="#DA5C67"/>
</svg>
