<svg width="23" height="18" viewBox="0 0 23 18" fill="none" xmlns="http://www.w3.org/2000/svg">
<path d="M1.27778 2.55556C0.915741 2.55556 0.612269 2.4331 0.367361 2.18819C0.122454 1.94329 0 1.63981 0 1.27778C0 0.915741 0.122454 0.612268 0.367361 0.367361C0.612269 0.122454 0.915741 0 1.27778 0H21.7222C22.0843 0 22.3877 0.122454 22.6326 0.367361C22.8775 0.612268 23 0.915741 23 1.27778C23 1.63981 22.8775 1.94329 22.6326 2.18819C22.3877 2.4331 22.0843 2.55556 21.7222 2.55556H1.27778ZM1.27778 17.8889C0.915741 17.8889 0.612269 17.7664 0.367361 17.5215C0.122454 17.2766 0 16.9731 0 16.6111C0 16.2491 0.122454 15.9456 0.367361 15.7007C0.612269 15.4558 0.915741 15.3333 1.27778 15.3333H21.7222C22.0843 15.3333 22.3877 15.4558 22.6326 15.7007C22.8775 15.9456 23 16.2491 23 16.6111C23 16.9731 22.8775 17.2766 22.6326 17.5215C22.3877 17.7664 22.0843 17.8889 21.7222 17.8889H1.27778ZM1.27778 10.2222C0.915741 10.2222 0.612269 10.0998 0.367361 9.85486C0.122454 9.60995 0 9.30648 0 8.94444C0 8.58241 0.122454 8.27893 0.367361 8.03403C0.612269 7.78912 0.915741 7.66667 1.27778 7.66667H21.7222C22.0843 7.66667 22.3877 7.78912 22.6326 8.03403C22.8775 8.27893 23 8.58241 23 8.94444C23 9.30648 22.8775 9.60995 22.6326 9.85486C22.3877 10.0998 22.0843 10.2222 21.7222 10.2222H1.27778Z" fill="#DA5C67"/>
</svg>
