<svg width="188" height="69" viewBox="0 0 188 69" fill="none" xmlns="http://www.w3.org/2000/svg">
<path d="M127.512 2.02478C128.075 0.493028 129.572 0.224951 130.863 0.699784C132.215 1.1967 133.121 2.34819 132.558 3.87994L130.172 10.3674C131.34 10.2512 132.611 10.4116 134.023 10.9306C138.408 12.5428 141.142 16.1395 139.671 20.2352L137.484 26.182C136.877 27.8339 135.805 28.8033 133.822 28.0745C132.321 27.5224 131.705 26.1368 132.18 24.8453L134.62 18.2078C135.205 16.6159 134.188 15.1168 132.416 14.4653C130.614 13.8028 129.021 14.24 128.245 15.7956C128.138 15.9948 128.041 16.164 127.964 16.3742L125.811 22.2309C125.203 23.8828 124.211 24.5409 122.259 23.8231C120.787 23.282 120.158 22.0276 120.632 20.7362L127.512 2.02478Z" fill="#DA5C67"/>
<path d="M110.266 17.7283C112.256 18.0518 112.827 17.5287 112.925 16.9285C113.125 15.6967 110.907 14.7849 110.08 14.4883C107.292 13.2895 104.188 12.0393 104.717 8.78597C105.092 6.48024 107.471 4.2086 112.936 5.09694C114.925 5.42043 116.827 6.08624 117.903 6.84476C119.064 7.68186 118.963 8.70286 118.398 9.58367C117.876 10.4064 116.887 10.5051 115.416 9.77969C114.636 9.3935 113.777 8.89715 112.387 8.67121C110.555 8.37339 110.078 8.91189 109.981 9.51201C109.842 10.3648 111.096 10.828 112.914 11.6099C115.617 12.7302 118.643 14.2596 118.089 17.6708C117.616 20.5766 114.639 21.9405 109.743 21.1446C106.711 20.6517 104.85 19.7332 103.736 18.6118C102.811 17.7159 102.907 16.7265 103.578 15.9926C104.369 15.1161 105.606 15.2848 106.481 15.881C107.489 16.6609 108.466 17.4356 110.266 17.7283Z" fill="#DA5C67"/>
<path d="M88.7146 13.5952C88.7772 15.4184 90.4267 16.4469 93.0823 16.4023C94.7781 16.3739 96.3666 15.6751 97.3211 15.3391C98.371 14.9694 99.4892 14.8547 100.146 15.8678C100.672 16.6591 100.626 17.748 99.5803 18.3736C98.3778 19.1939 95.9585 19.9706 93.015 20.02C87.2878 20.116 83.6592 17.4885 83.3372 13.5574C83.2544 12.4386 83.2367 11.3827 83.2825 10.2938C83.288 6.80523 86.9165 3.70394 92.1637 3.61593C96.8671 3.53704 100.849 6.25464 100.911 9.96612C100.961 12.9417 98.8572 13.4251 96.7135 13.461L88.7146 13.5952ZM94.8323 10.0681C95.5682 10.0557 95.7916 10.02 95.7852 9.63604C95.7627 8.29223 94.2092 7.26214 92.1934 7.29595C90.2737 7.32815 88.625 8.25193 88.6486 9.65973L88.6572 10.1717L94.8323 10.0681Z" fill="#DA5C67"/>
<path d="M74.6327 18.6768C74.9598 20.4061 74.4779 21.4743 72.4027 21.8668C70.862 22.1582 69.7131 21.5939 69.4574 20.2419L67.3224 8.95402C67.0191 7.35046 68.1714 6.38345 69.5234 6.12772C70.4353 5.95525 71.3318 6.04621 71.9759 6.86884C72.8725 5.7548 74.273 5.06653 75.908 4.75728L77.7316 4.41234C79.1151 4.15067 80.3167 4.47704 80.5784 5.86051C80.846 7.27542 79.8976 7.94331 78.4827 8.21094L76.8477 8.52019C74.9297 8.88297 72.9972 10.0301 73.4849 12.6084L74.6327 18.6768Z" fill="#DA5C67"/>
<path d="M59.7895 8.47362C61.4792 7.87671 62.3616 8.54919 62.724 9.57506C63.0011 10.3595 62.8594 11.4956 61.0792 12.1245L57.9715 13.2224L61.2544 22.5155C61.8194 24.1147 60.8275 25.2457 59.4999 25.7147C58.2024 26.173 56.69 25.9267 56.1251 24.3276L52.8421 15.0344L51.0318 15.674C49.4025 16.2495 48.4597 15.5984 48.1293 14.663C47.7989 13.7277 48.0222 12.6306 49.742 12.0231L51.5524 11.3835L50.8169 9.30162C49.5378 5.68091 51.7645 2.28106 55.687 0.895386L57.5878 0.223866C58.8551 -0.223813 60.0018 -0.0519681 60.4495 1.21528C60.9398 2.60322 60.2034 3.30458 58.8758 3.77357L57.699 4.18927C56.1301 4.74354 55.392 5.92061 55.861 7.24821L56.6817 9.5715L59.7895 8.47362Z" fill="#DA5C67"/>
</svg>
