<svg width="41" height="50" viewBox="0 0 41 50" fill="none" xmlns="http://www.w3.org/2000/svg">
<path d="M20.0282 47.0685C25.3328 42.4511 29.5266 37.7552 32.6096 32.9807C35.6925 28.2062 37.234 24.0769 37.234 20.5927C37.234 15.4291 35.5994 11.1674 32.3301 7.80736C29.0609 4.44781 24.9603 2.76803 20.0282 2.76803C15.0961 2.76803 10.9954 4.44781 7.72621 7.80736C4.45698 11.1674 2.82236 15.4291 2.82236 20.5927C2.82236 24.0769 4.36384 28.2062 7.4468 32.9807C10.5298 37.7552 14.7236 42.4511 20.0282 47.0685ZM18.7038 49.3313C18.2626 49.1869 17.8554 48.9517 17.4824 48.6258C15.4743 46.7804 13.4389 44.7253 11.3762 42.4603C9.31403 40.1954 7.44069 37.8497 5.75621 35.4235C4.07173 32.9972 2.69136 30.5203 1.6151 27.9929C0.538365 25.4655 0 22.9987 0 20.5927C0 14.6219 1.94414 9.69716 5.83241 5.8183C9.72021 1.93943 14.4521 0 20.0282 0C25.6042 0 30.3362 1.93943 34.224 5.8183C38.1122 9.69716 40.0564 14.6219 40.0564 20.5927C40.0564 22.9987 39.518 25.4565 38.4413 27.9661C37.365 30.4752 35.9936 32.9518 34.327 35.3959C32.6608 37.8406 30.7964 40.1862 28.7338 42.4328C26.6716 44.6799 24.6364 46.7261 22.6283 48.5714C22.2553 48.8974 21.839 49.1418 21.3794 49.3045C20.9198 49.4673 20.4694 49.5487 20.0282 49.5487C19.587 49.5487 19.1455 49.4762 18.7038 49.3313ZM23.2548 23.3092C24.1434 22.4206 24.5877 21.345 24.5877 20.0825C24.5877 18.8195 24.1434 17.7437 23.2548 16.8551C22.3667 15.967 21.2912 15.523 20.0282 15.523C18.7652 15.523 17.6896 15.967 16.8015 16.8551C15.9129 17.7437 15.4687 18.8195 15.4687 20.0825C15.4687 21.345 15.9129 22.4206 16.8015 23.3092C17.6896 24.1973 18.7652 24.6413 20.0282 24.6413C21.2912 24.6413 22.3667 24.1973 23.2548 23.3092Z" fill="#1D1D1D"/>
</svg>
