<svg width="50" height="50" viewBox="0 0 50 50" fill="none" xmlns="http://www.w3.org/2000/svg">
<path d="M24.7833 49.5487C21.3575 49.5487 18.1366 48.8986 15.1206 47.5984C12.105 46.2982 9.48169 44.5337 7.25062 42.3049C5.01956 40.0762 3.25347 37.4551 1.95235 34.4418C0.650785 31.429 0 28.2095 0 24.7833C0 21.3575 0.650097 18.1366 1.95029 15.1206C3.25048 12.105 5.01497 9.48169 7.24374 7.25062C9.47251 5.01955 12.0935 3.25347 15.1068 1.95235C18.1197 0.650785 21.3392 0 24.7654 0C28.1911 0 31.412 0.650099 34.4281 1.95029C37.4437 3.25049 40.067 5.01497 42.298 7.24374C44.5291 9.47251 46.2952 12.0935 47.5963 15.1068C48.8979 18.1197 49.5487 21.3392 49.5487 24.7654C49.5487 28.1911 48.8986 31.412 47.5984 34.4281C46.2982 37.4436 44.5337 40.067 42.3049 42.298C40.0762 44.5291 37.4551 46.2952 34.4418 47.5963C31.429 48.8979 28.2095 49.5487 24.7833 49.5487ZM24.7743 46.796C30.922 46.796 36.1292 44.6626 40.3959 40.3959C44.6626 36.1292 46.796 30.922 46.796 24.7743C46.796 18.6266 44.6626 13.4194 40.3959 9.15274C36.1292 4.88605 30.922 2.7527 24.7743 2.7527C18.6266 2.7527 13.4194 4.88605 9.15274 9.15274C4.88605 13.4194 2.7527 18.6266 2.7527 24.7743C2.7527 30.922 4.88605 36.1292 9.15274 40.3959C13.4194 44.6626 18.6266 46.796 24.7743 46.796ZM25.6504 42.5795C25.9206 42.3097 26.0557 41.9948 26.0557 41.6346V39.7552C28.0317 39.5896 29.9249 38.8803 31.7352 37.6274C33.5461 36.3745 34.4515 34.4299 34.4515 31.7937C34.4515 29.8668 33.8656 28.2239 32.6939 26.865C31.5221 25.5066 29.2846 24.2309 25.9814 23.0381C22.9461 21.9792 21.0068 21.0703 20.1636 20.3115C19.3203 19.5531 18.8987 18.4716 18.8987 17.0668C18.8987 15.662 19.4465 14.4921 20.5421 13.5571C21.6376 12.6221 23.0943 12.1546 24.912 12.1546C26.0415 12.1546 27.0297 12.3768 27.8766 12.8214C28.7235 13.266 29.447 13.8518 30.0471 14.579C30.2586 14.8469 30.5188 15.0401 30.8275 15.1585C31.1363 15.2768 31.4329 15.2741 31.7173 15.1502C32.105 15.002 32.37 14.749 32.5122 14.3911C32.6544 14.0328 32.6127 13.7018 32.3869 13.3981C31.6529 12.3782 30.7378 11.5453 29.6418 10.8993C28.5462 10.2538 27.3967 9.88519 26.1934 9.79343V7.91402C26.1934 7.55388 26.0582 7.23892 25.788 6.96916C25.5183 6.69894 25.2033 6.56382 24.8432 6.56382C24.483 6.56382 24.1681 6.69894 23.8983 6.96916C23.6281 7.23892 23.4929 7.55388 23.4929 7.91402V9.79343C21.0935 10.1921 19.2779 11.0867 18.046 12.4773C16.8142 13.8679 16.1983 15.3977 16.1983 17.0668C16.1983 19.0464 16.8204 20.6311 18.0646 21.8207C19.3088 23.0099 21.4078 24.1391 24.3614 25.2086C27.3224 26.2991 29.3119 27.2837 30.33 28.1622C31.348 29.0408 31.857 30.2513 31.857 31.7937C31.857 33.7312 31.1505 35.1261 29.7375 35.9785C28.3239 36.8305 26.8072 37.2565 25.1872 37.2565C23.765 37.2565 22.4795 36.8904 21.3307 36.1581C20.1819 35.4259 19.2159 34.3982 18.4328 33.0751C18.2419 32.7503 17.9719 32.5349 17.6228 32.4289C17.2732 32.3229 16.9436 32.3337 16.6339 32.4613C16.3004 32.5883 16.0563 32.8299 15.9017 33.1859C15.7466 33.5424 15.7537 33.8778 15.923 34.192C16.7277 35.7166 17.7494 36.9101 18.9882 37.7726C20.2269 38.6356 21.6826 39.2506 23.3553 39.6176V41.6346C23.3553 41.9948 23.4904 42.3097 23.7607 42.5795C24.0304 42.8497 24.3454 42.9848 24.7055 42.9848C25.0657 42.9848 25.3806 42.8497 25.6504 42.5795Z" fill="#1D1D1D"/>
</svg>
