<svg width="188" height="69" viewBox="0 0 188 69" fill="none" xmlns="http://www.w3.org/2000/svg">
<path d="M144.292 18.1866C145.143 16.794 146.674 16.8668 147.875 17.601C148.967 18.2684 149.272 19.2422 149.14 19.9491C150.638 19.4015 152.017 19.9066 153.409 20.7575C155.566 22.0757 156.81 23.6609 157.217 25.6344C158.961 25.0503 160.891 25.3294 162.939 26.5808C166.98 29.0502 168.656 32.8122 166.387 36.5258L162.666 42.6149C161.915 43.8436 160.984 44.3245 159.182 43.2233C157.817 42.389 157.234 41.133 158.018 39.8497L161.806 33.6513C162.69 32.2041 162.285 30.719 160.701 29.7513C159.063 28.7501 157.513 29.0778 156.595 30.5796L152.807 36.778C152.057 38.0068 151.072 38.2677 149.297 37.1832C147.823 36.2821 147.431 35.1429 148.149 33.9688L152.003 27.6612C152.887 26.214 152.455 24.7122 150.926 23.7779C148.987 22.5932 147.61 23.2516 146.642 24.8353L143.288 30.3237C142.371 31.8255 141.215 32.2442 139.467 31.1764C138.102 30.3421 137.601 29.1361 138.319 27.962L144.292 18.1866Z" fill="#DA5C67"/>
<path d="M134.911 26.1384C134.439 27.7672 132.974 28.1083 131.591 27.707C130.761 27.4662 129.99 26.9091 129.782 26.016C128.396 26.5465 126.989 26.5714 125.36 26.0987C120.781 24.7698 117.885 21.4304 119.058 17.2726L121.003 10.5731C121.484 8.91353 122.327 8.19175 124.355 8.78038C125.922 9.23524 126.701 10.2275 126.308 11.5797L124.186 18.8939C123.713 20.5227 124.793 21.9689 126.636 22.504C128.45 23.0302 130.302 22.5017 130.82 20.7192L132.773 13.9889C133.254 12.3294 134.22 11.6433 136.187 12.2141C137.723 12.66 138.532 13.6612 138.14 15.0134L134.911 26.1384Z" fill="#DA5C67"/>
<path d="M110.382 2.35459C110.611 0.609566 112.136 -0.190729 113.881 0.0383531C115.626 0.267435 116.925 1.43843 116.695 3.18345C116.466 4.92848 114.914 5.69289 113.169 5.4638C111.424 5.23472 110.153 4.09962 110.382 2.35459ZM108.655 19.6853L110.113 8.58059C110.325 6.96247 111.722 6.4035 113.086 6.58261C114.451 6.76171 115.687 7.66638 115.475 9.2845L114.017 20.3892C113.796 22.0708 112.368 22.6256 111.004 22.4465C109.639 22.2674 108.434 21.3669 108.655 19.6853Z" fill="#DA5C67"/>
<path d="M75.6872 10.4673C75.5696 8.83959 76.857 8.00865 78.2614 7.90719C79.5381 7.81496 80.3525 8.42987 80.6562 9.08168C81.5557 7.76544 82.9712 7.37442 84.599 7.25682C87.1204 7.07466 89.0542 7.64078 90.5327 9.0098C91.6122 7.52014 93.3442 6.62501 95.738 6.45207C100.462 6.1108 104.013 8.1963 104.327 12.537L104.841 19.6544C104.945 21.0907 104.467 22.0236 102.36 22.1758C100.764 22.291 99.56 21.6081 99.4516 20.108L98.9282 12.8628C98.806 11.1713 97.6128 10.1987 95.7616 10.3325C93.8466 10.4708 92.776 11.639 92.9028 13.3944L93.4263 20.6395C93.53 22.0758 92.8809 22.8606 90.8063 23.0105C89.0828 23.135 88.1019 22.4359 88.0027 21.0634L87.4701 13.6907C87.3479 11.9991 86.1228 11.0288 84.3354 11.158C82.0693 11.3217 81.3317 12.6583 81.4655 14.5095L81.9289 20.9248C82.0558 22.6802 81.3589 23.693 79.3163 23.8406C77.7204 23.9559 76.6118 23.266 76.5127 21.8936L75.6872 10.4673Z" fill="#DA5C67"/>
<path d="M60.6567 22.3854C61.2762 24.1013 63.1618 24.5735 65.6754 23.7156C67.2805 23.1678 68.5777 22.015 69.3829 21.4021C70.2686 20.7278 71.2975 20.2752 72.234 21.0376C72.9769 21.6293 73.2678 22.6797 72.4648 23.5962C71.5724 24.7461 69.5085 26.2282 66.7223 27.1791C61.3013 29.0293 57.0412 27.643 55.5275 24.0007C55.1052 22.9614 54.7641 21.962 54.4733 20.9117C53.4072 17.59 55.908 13.5243 60.8747 11.8291C65.3265 10.3097 69.9508 11.6731 71.1498 15.1861C72.111 18.0026 70.257 19.1088 68.2279 19.8013L60.6567 22.3854ZM65.3957 17.15C66.0922 16.9123 66.2939 16.8096 66.1699 16.4462C65.7357 15.1743 63.941 14.671 62.033 15.3222C60.216 15.9424 58.9306 17.3278 59.3854 18.6603L59.5507 19.1449L65.3957 17.15Z" fill="#DA5C67"/>
<path d="M48.8274 31.5669C49.675 33.1094 49.5483 34.2744 47.6974 35.2915C46.3232 36.0466 45.0559 35.8666 44.3932 34.6607L38.8609 24.5926C38.0749 23.1623 38.8703 21.8854 40.0763 21.2228C40.8896 20.7759 41.7701 20.5842 42.6376 21.1663C43.1443 19.829 44.262 18.7402 45.7204 17.9388L47.347 17.045C48.5809 16.3669 49.8245 16.3043 50.5026 17.5383C51.196 18.8003 50.5017 19.7296 49.2397 20.423L47.7814 21.2244C46.0706 22.1644 44.5895 23.8546 45.8532 26.1543L48.8274 31.5669Z" fill="#DA5C67"/>
<path d="M25.8678 31.1326C29.5338 28.1851 34.045 27.5144 36.8967 30.8058C37.6234 31.6586 38.2 32.4268 38.8015 33.175C41.3882 36.3921 39.7801 40.9288 36.1141 43.8764C35.0666 44.7185 33.9634 45.236 32.9096 45.5084L35.9975 49.349C37.0803 50.6957 37.0931 51.8351 35.4721 53.1384C34.2501 54.121 33.0309 54.2389 32.1086 53.0917L20.5389 38.702C19.5163 37.4301 20.0776 36.0344 21.15 35.1722C21.8483 34.6108 22.637 34.264 23.4924 34.5618C23.9192 33.3563 24.6209 32.1352 25.8678 31.1326ZM29.2901 40.9045C30.3929 42.2761 32.2067 42.1318 33.7279 40.9086C35.1744 39.7457 35.5802 38.1055 34.602 36.6336C34 35.6805 33.3134 34.8776 32.5368 34.0649C31.3342 32.7734 29.7654 32.9672 28.294 34.1502C26.8226 35.3333 26.4418 36.9534 27.285 38.4106C28.9194 40.5456 29.1047 40.7251 29.2901 40.9045Z" fill="#DA5C67"/>
</svg>
