<svg width="31" height="31" viewBox="0 0 31 31" fill="none" xmlns="http://www.w3.org/2000/svg">
<path d="M11.4651 22.9303C8.26079 22.9303 5.54884 21.8205 3.3293 19.601C1.10977 17.3815 0 14.6695 0 11.4651C0 8.26079 1.10977 5.54884 3.3293 3.3293C5.54884 1.10977 8.26079 0 11.4651 0C14.6695 0 17.3815 1.10977 19.601 3.3293C21.8205 5.54884 22.9303 8.26079 22.9303 11.4651C22.9303 12.7587 22.7245 13.9787 22.3129 15.1252C21.9014 16.2717 21.3428 17.2859 20.6373 18.1679L30.5149 28.0455C30.8383 28.3689 31 28.7805 31 29.2802C31 29.78 30.8383 30.1916 30.5149 30.5149C30.1916 30.8383 29.78 31 29.2802 31C28.7805 31 28.3689 30.8383 28.0455 30.5149L18.1679 20.6373C17.2859 21.3428 16.2717 21.9014 15.1252 22.3129C13.9787 22.7245 12.7587 22.9303 11.4651 22.9303ZM11.4651 19.4026C13.67 19.4026 15.5441 18.6309 17.0875 17.0875C18.6309 15.5441 19.4026 13.67 19.4026 11.4651C19.4026 9.26031 18.6309 7.3862 17.0875 5.84282C15.5441 4.29943 13.67 3.52774 11.4651 3.52774C9.26031 3.52774 7.3862 4.29943 5.84282 5.84282C4.29943 7.3862 3.52774 9.26031 3.52774 11.4651C3.52774 13.67 4.29943 15.5441 5.84282 17.0875C7.3862 18.6309 9.26031 19.4026 11.4651 19.4026Z" fill="#DA5C67"/>
</svg>
