<svg width="51" height="45" viewBox="0 0 51 45" fill="none" xmlns="http://www.w3.org/2000/svg">
<path d="M7.05977 44.5938C5.85224 44.5938 4.84407 44.1894 4.03526 43.3806C3.22645 42.5718 2.82205 41.5636 2.82205 40.3561V19.3006C1.71551 18.4835 0.905826 17.4123 0.392998 16.0872C-0.119831 14.7621 -0.130761 13.348 0.360208 11.8449L2.9132 3.43044C3.26296 2.36107 3.82694 1.52187 4.60514 0.91286C5.38379 0.304286 6.34649 0 7.49325 0H42.6437C43.7904 0 44.7505 0.285049 45.5239 0.85515C46.2977 1.42525 46.8646 2.25002 47.2244 3.32945L49.8777 11.8449C50.3687 13.348 50.3577 14.7739 49.8449 16.1226C49.3321 17.4709 48.5224 18.5639 47.4159 19.4016V40.3561C47.4159 41.5636 47.0114 42.5718 46.2026 43.3806C45.3938 44.1894 44.3859 44.5938 43.1788 44.5938H7.05977ZM30.8899 18.3622C32.5749 18.3622 33.8327 17.8904 34.6633 16.947C35.494 16.0039 35.8438 15.0296 35.7126 14.0241L33.9669 2.62316H26.4305V13.6405C26.4305 14.9284 26.871 16.0374 27.752 16.9673C28.6333 17.8972 29.6793 18.3622 30.8899 18.3622ZM19.0857 18.3622C20.4948 18.3622 21.6341 17.8972 22.5037 16.9673C23.3728 16.0374 23.8074 14.9284 23.8074 13.6405V2.62316H16.271L14.5253 14.2254C14.4178 15.0395 14.7734 15.9324 15.5923 16.9043C16.4111 17.8762 17.5756 18.3622 19.0857 18.3622ZM7.41259 18.3622C8.5694 18.3622 9.55222 17.9687 10.361 17.1817C11.1698 16.3948 11.6735 15.4128 11.872 14.2359L13.5167 2.62316H7.49325C6.9214 2.62316 6.46737 2.7493 6.13117 3.00156C5.79497 3.25382 5.54271 3.63221 5.37439 4.13673L2.95321 12.4194C2.52257 13.7983 2.70663 15.1335 3.50538 16.4249C4.30414 17.7164 5.60654 18.3622 7.41259 18.3622ZM42.8253 18.3622C44.3957 18.3622 45.6502 17.7501 46.5889 16.5259C47.5271 15.3018 47.7591 13.9329 47.2847 12.4194L44.7324 4.03574C44.564 3.53122 44.3118 3.16966 43.9756 2.95106C43.6394 2.73246 43.1853 2.62316 42.6135 2.62316H36.7212L38.3659 14.2359C38.5644 15.4128 39.0681 16.3948 39.8769 17.1817C40.6857 17.9687 41.6685 18.3622 42.8253 18.3622ZM7.05977 41.9706H43.1788C43.6492 41.9706 44.0359 41.8194 44.3389 41.5168C44.6414 41.2139 44.7927 40.8269 44.7927 40.3561V20.6522C44.4394 20.7733 44.1039 20.8592 43.7861 20.9099C43.4686 20.9602 43.1484 20.9853 42.8253 20.9853C41.6449 20.9853 40.6066 20.7549 39.7103 20.2941C38.8141 19.8333 37.9624 19.0986 37.1553 18.09C36.4694 18.9438 35.6236 19.6399 34.6181 20.178C33.6125 20.7162 32.3899 20.9853 30.9503 20.9853C29.9045 20.9853 28.9099 20.7416 27.9664 20.2541C27.0234 19.7662 26.0742 19.0448 25.119 18.09C24.2411 19.0448 23.2683 19.7662 22.2007 20.2541C21.1331 20.7416 20.1148 20.9853 19.146 20.9853C18.0465 20.9853 16.9747 20.775 15.9307 20.3544C14.8862 19.9343 13.9705 19.1795 13.1836 18.09C11.8956 19.378 10.7698 20.1824 9.80623 20.5033C8.84265 20.8246 8.04477 20.9853 7.41259 20.9853C7.08994 20.9853 6.76467 20.9602 6.43677 20.9099C6.10887 20.8592 5.77836 20.7733 5.44521 20.6522V40.3561C5.44521 40.8269 5.59648 41.2139 5.89902 41.5168C6.202 41.8194 6.58891 41.9706 7.05977 41.9706Z" fill="#1D1D1D"/>
</svg>
