<svg width="1920" height="1012" viewBox="0 0 1920 1012" fill="none" xmlns="http://www.w3.org/2000/svg">
<rect width="1920" height="750" fill="#FFEBEA"/>
<path d="M672.019 862.46C646.25 863.009 607.888 787.873 583.54 787.753C547.741 787.573 538.781 871.948 540.653 880.198C544.757 898.275 511.891 1011.58 488.034 886.41C486.662 879.189 467.111 797.131 447.839 797.361C432.552 797.541 421.86 829.91 419.197 837.771C402.118 890.245 386.441 867.004 381.715 828.862C375.338 777.336 327.165 773.8 320.017 832.058C269.22 1075.52 263.153 965.771 248.327 818.754C242.57 761.716 195.468 854.24 185.827 881.536C173.513 916.392 138.955 906.655 130.906 874.535L119.123 826.305C117.591 805.401 96.898 797.111 86.2361 829.541C82.1015 842.115 68.6365 907.544 58.295 847.089C57.7143 843.703 57.2839 841.017 56.8834 837.91C53.82 814.659 31.1347 820.412 32.3461 844.532C34.3983 885.481 7.91883 924.772 0 855.908V662H1920V859.983H1915.54C1908.97 859.983 1902.58 857.925 1897.39 854.14L1865.82 831.109C1858.63 825.865 1848.54 825.556 1841.2 830.62C1834.88 834.994 1830.36 841.566 1828.98 849.246L1803.1 974.57C1793.44 1019.99 1759.9 1028.86 1760.72 974.31L1756.9 848.907C1756.94 842.864 1755.96 829.701 1753.04 825.716C1728.62 792.307 1710.86 859.763 1706.32 887.618C1703.81 895.728 1698.92 903.079 1692 908.472C1668.55 926.74 1648.95 904.098 1639.42 865.606C1639.33 865.226 1639.23 864.847 1639.14 864.467C1633.9 843.404 1624.54 817.446 1613.67 819.943C1604.7 822 1590.96 856.118 1581.15 883.903C1572.64 908.023 1570.71 933.761 1575.45 958.78C1576.08 962.125 1576.59 964.942 1576.84 966.84C1583.68 1018.29 1547.32 1016.92 1530.94 985.546C1528.7 981.262 1526.48 971.743 1525.55 967.059C1520.25 940.413 1495.11 819.384 1476.31 800.317C1466.24 790.12 1459.15 789.491 1448.1 798.739C1424.31 818.664 1434.75 858.265 1436.32 882.635C1446.31 1037.87 1370.26 1009.74 1381.32 898.175C1383.63 874.804 1395.36 826.794 1381.45 807.778C1368.61 790.21 1353.69 803.094 1346.58 813.301C1343.47 817.776 1341.72 822.959 1341.29 828.292C1334.39 913.676 1288.1 885.072 1290.06 844.532C1291.23 820.412 1269.31 814.659 1266.35 837.91C1265.95 841.017 1265.54 843.703 1264.98 847.089C1254.99 907.544 1241.97 842.115 1237.99 829.541C1227.7 797.111 1207.7 805.401 1206.21 826.305L1194.82 874.535C1187.04 906.655 1153.65 916.392 1141.75 881.536C1132.43 854.24 1102.53 765.271 1081.37 818.754C1049.84 898.405 1050.36 969.646 1016.78 830.03C1009.89 771.773 958.649 777.336 952.482 828.862C947.917 867.004 932.77 890.245 916.271 837.771C913.698 829.91 903.367 797.541 888.591 797.361C869.98 797.131 851.089 879.189 849.757 886.41C826.702 1011.58 794.946 898.265 798.911 880.198C800.723 871.938 792.063 787.573 757.474 787.753C733.948 787.873 696.887 863.009 671.979 862.46" fill="#FFEBEA"/>
</svg>
